<?xml version="1.0" encoding="UTF-8"?>
<svg version="1.1" xmlns="http://www.w3.org/2000/svg" width="128" height="128">
<path d="M0 0 C10.4853487 7.21986818 17.10633151 16.51122616 21.6171875 28.40234375 C24.05048601 34.5331685 26.48742528 36.92198735 32.33984375 39.80859375 C36.26378157 41.74763481 38.90565716 44.33992899 40.78125 48.27734375 C42.67987876 53.9567202 42.6723621 59.86037359 40.1171875 65.27734375 C35.86084581 69.97023331 31.72033532 73.51767115 26.0546875 76.40234375 C22.925981 78.04543962 21.15482849 79.33001293 19.3046875 82.33984375 C13.59987867 91.246331 2.44757782 94.63258752 -7.3203125 96.96484375 C-24.04871163 100.36529596 -42.72136601 98.1031156 -57.3203125 88.96484375 C-60.62551844 86.72305189 -62.98890798 84.5417331 -65.0078125 81.02734375 C-67.47310619 77.76249535 -69.04612806 76.89295895 -72.6328125 75.08984375 C-78.61921643 72.06057911 -83.28098552 68.04349771 -86.3203125 61.96484375 C-86.84741062 55.76130436 -87.10066194 50.16282424 -83.3203125 44.96484375 C-79.94219449 41.5121536 -76.78902058 38.55797586 -72.2734375 36.734375 C-68.34427793 34.37999764 -67.38643253 31.45896876 -65.8828125 27.33984375 C-63.21577376 20.67075107 -60.23148126 15.29322345 -55.3203125 9.96484375 C-54.1446875 8.66546875 -54.1446875 8.66546875 -52.9453125 7.33984375 C-52.0790625 6.55609375 -51.2128125 5.77234375 -50.3203125 4.96484375 C-49.69769531 4.39894531 -49.07507812 3.83304688 -48.43359375 3.25 C-34.47853756 -8.60052348 -15.50669278 -9.50469052 0 0 Z " fill="#807AF7" transform="translate(86.3203125,18.03515625)"/>
<path d="M0 0 C-0.21462891 0.82757813 -0.21462891 0.82757813 -0.43359375 1.671875 C-1.0455309 4.18714769 -1.56126811 6.71042508 -2.0625 9.25 C-2.23910156 10.14203125 -2.41570313 11.0340625 -2.59765625 11.953125 C-2.73042969 12.62859375 -2.86320313 13.3040625 -3 14 C12.79833076 19.52941577 28.12204591 22.35225608 44.875 22.25 C46.13441406 22.25773437 47.39382812 22.26546875 48.69140625 22.2734375 C64.77439982 22.24037893 79.85860941 19.29948671 95 14 C94.01 8.06 94.01 8.06 93 2 C99.39580686 4.55832274 103.57554404 8.20820223 108.0625 13.375 C109.72443746 18.02842487 109.12348834 22.42381511 107.16015625 26.92578125 C100.8864553 36.99495964 87.19933344 41.11099575 76.27148438 43.64990234 C49.68142963 49.61478626 17.87765832 49.69332332 -6.203125 35.25390625 C-8.80981884 33.43488729 -10.91504537 31.39156561 -13 29 C-13.86625 28.13375 -13.86625 28.13375 -14.75 27.25 C-17.27563356 22.70385959 -16.94654236 17.52354278 -17.125 12.4375 C-15.18968968 6.52405179 -10.09215112 2.89889058 -4.89453125 -0.29296875 C-3 -1 -3 -1 0 0 Z " fill="#E6E5FC" transform="translate(18,55)"/>
<path d="M0 0 C10.4853487 7.21986818 17.10633151 16.51122616 21.6171875 28.40234375 C24.05048601 34.5331685 26.48742528 36.92198735 32.33984375 39.80859375 C36.26378157 41.74763481 38.90565716 44.33992899 40.78125 48.27734375 C42.67987876 53.9567202 42.6723621 59.86037359 40.1171875 65.27734375 C35.86084581 69.97023331 31.72033532 73.51767115 26.0546875 76.40234375 C22.925981 78.04543962 21.15482849 79.33001293 19.3046875 82.33984375 C13.59987867 91.246331 2.44757782 94.63258752 -7.3203125 96.96484375 C-24.04871163 100.36529596 -42.72136601 98.1031156 -57.3203125 88.96484375 C-60.62551844 86.72305189 -62.98890798 84.5417331 -65.0078125 81.02734375 C-67.47310619 77.76249535 -69.04612806 76.89295895 -72.6328125 75.08984375 C-78.61921643 72.06057911 -83.28098552 68.04349771 -86.3203125 61.96484375 C-86.41639858 60.13355604 -86.45013829 58.29864416 -86.4453125 56.46484375 C-86.44789062 55.48515625 -86.45046875 54.50546875 -86.453125 53.49609375 C-86.3203125 50.96484375 -86.3203125 50.96484375 -85.3203125 48.96484375 C-84.6603125 48.96484375 -84.0003125 48.96484375 -83.3203125 48.96484375 C-83.48080078 49.94324219 -83.48080078 49.94324219 -83.64453125 50.94140625 C-84.42419259 56.62538895 -84.50246673 59.9468313 -81.3203125 64.96484375 C-80.9903125 65.95484375 -80.6603125 66.94484375 -80.3203125 67.96484375 C-78.5810326 69.02640726 -78.5810326 69.02640726 -76.3203125 69.96484375 C-75.35480469 70.48820312 -74.38929687 71.0115625 -73.39453125 71.55078125 C-46.38689733 85.81778971 -13.64356269 86.36547689 15.2421875 77.58984375 C24.78119422 74.5153262 33.06067721 70.83013629 38.4921875 62.02734375 C39.85820861 58.50444721 40.35192101 56.69947435 39.6796875 52.96484375 C36.20972647 46.41923545 30.95156903 42.64434758 24.6796875 38.96484375 C25.0096875 40.01671875 25.3396875 41.06859375 25.6796875 42.15234375 C26.51935532 45.35357732 26.87719654 47.70594455 26.6796875 50.96484375 C24.8671875 52.02734375 24.8671875 52.02734375 22.6796875 52.96484375 C21.1946875 52.46984375 21.1946875 52.46984375 19.6796875 51.96484375 C21.6596875 51.30484375 23.6396875 50.64484375 25.6796875 49.96484375 C22.09669446 32.23845712 15.09562138 13.75929852 -0.3203125 2.96484375 C-2.92055667 1.45839254 -5.5619848 0.1547106 -8.3203125 -1.03515625 C-9.04605469 -1.39351562 -9.77179688 -1.751875 -10.51953125 -2.12109375 C-19.08402957 -4.91620199 -31.10291126 -4.30302026 -39.15625 -0.359375 C-53.91966703 8.67455708 -63.59859141 22.59697832 -67.9453125 39.3046875 C-68.0690625 39.85253906 -68.1928125 40.40039062 -68.3203125 40.96484375 C-68.6503125 40.30484375 -68.9803125 39.64484375 -69.3203125 38.96484375 C-69.9803125 38.63484375 -70.6403125 38.30484375 -71.3203125 37.96484375 C-70.6603125 37.30484375 -70.0003125 36.64484375 -69.3203125 35.96484375 C-68.54844726 34.00193551 -67.82674324 32.01913813 -67.1328125 30.02734375 C-61.69176047 15.49104201 -52.45428258 3.48776294 -38.359375 -3.50390625 C-25.33437958 -8.39264448 -11.82968571 -7.25090147 0 0 Z " fill="#5324DF" transform="translate(86.3203125,18.03515625)"/>
<path d="M0 0 C2.33333333 2.33333333 4.66666667 4.66666667 7 7 C7.66 6.67 8.32 6.34 9 6 C10.80665159 6.82120527 12.57143491 7.73510281 14.3125 8.6875 C29.34865489 16.43939325 44.76547194 18.41835282 61.4375 18.375 C62.18712006 18.37478851 62.93674011 18.37457703 63.70907593 18.37435913 C82.29454707 18.32209222 99.29811212 15.58729141 116 7 C116.495 7.99 116.495 7.99 117 9 C117.7425 8.2575 118.485 7.515 119.25 6.75 C121.5 4.5 123.75 2.25 126 0 C125.83605945 6.57252584 124.86552116 11.35766788 120 16 C97.96063203 32.25598772 66.58100976 33.32012772 40.53344727 29.41455078 C27.35686614 27.21453564 13.06872539 23.40236148 4 13 C3.4225 12.4225 2.845 11.845 2.25 11.25 C0.29160705 7.72489268 0.24632212 3.97512932 0 0 Z " fill="#C8C2F9" transform="translate(1,71)"/>
<path d="M0 0 C0.56396484 0.11593506 1.12792969 0.23187012 1.70898438 0.35131836 C4.30535629 0.88319184 6.90266076 1.41037146 9.5 1.9375 C10.386875 2.11990234 11.27375 2.30230469 12.1875 2.49023438 C33.24424229 6.74803153 56.16899382 6.90888371 76.828125 0.5859375 C79 0 79 0 82 0 C78.49988584 7.75025278 71.83739224 10.82395413 64.2578125 13.921875 C49.1096021 18.93495182 29.67550394 19.91237504 15 13 C9.2709629 10.10374163 4.1348857 6.96186284 0 2 C0 1.34 0 0.68 0 0 Z " fill="#C4C3F8" transform="translate(23,97)"/>
<path d="M0 0 C4.61664089 0.18843432 7.30109224 1.0128429 11.125 3.625 C14.22152736 5.76865504 14.22152736 5.76865504 18 5.8125 C18.66 5.544375 19.32 5.27625 20 5 C24.56347388 10.59393572 25.22559711 12.89369093 25 20 C24 21 24 21 21.4375 21.0625 C20.633125 21.041875 19.82875 21.02125 19 21 C19 19.35 19 17.7 19 16 C19.99 16 20.98 16 22 16 C22 15.34 22 14.68 22 14 C20.35 14.66 18.7 15.32 17 16 C17.33 16.33 17.66 16.66 18 17 C18.04063832 18.66617115 18.042721 20.33388095 18 22 C18.33 22 18.66 22 19 22 C20.66821323 22.32550502 22.33499557 22.65846063 24 23 C24.625 25.375 24.625 25.375 25 28 C23 30 23 30 19.875 30.125 C18.451875 30.063125 18.451875 30.063125 17 30 C16.67 31.98 16.34 33.96 16 36 C9.9453125 36.9765625 9.9453125 36.9765625 8 37 C7.34 36.34 6.68 35.68 6 35 C6.99 35 7.98 35 9 35 C9 34.34 9 33.68 9 33 C7.906875 32.896875 6.81375 32.79375 5.6875 32.6875 C2 32 2 32 0.0625 30.9375 C-1.68936002 27.74293172 -1.49863622 24.50411479 -1 21 C0.1875 18.0625 0.1875 18.0625 2 16 C4.6875 15.1875 4.6875 15.1875 7 15 C5.68 14.34 4.36 13.68 3 13 C2.01 14.485 2.01 14.485 1 16 C0.01 15.67 -0.98 15.34 -2 15 C-1.85973717 12.68715544 -1.71264442 10.37472409 -1.5625 8.0625 C-1.48128906 6.77472656 -1.40007812 5.48695312 -1.31640625 4.16015625 C-1 1 -1 1 0 0 Z " fill="#C4C1FB" transform="translate(72,30)"/>
<path d="M0 0 C2.31 0.66 4.62 1.32 7 2 C7 2.33 7 2.66 7 3 C5.35 3 3.7 3 2 3 C2.05563651 4.83468832 2.05563651 4.83468832 3 7 C4.4817291 8.25624859 5.96740089 9.50946608 7.5 10.703125 C9.59650319 12.51572671 10.79585072 14.52480425 12 17 C12 17.66 12 18.32 12 19 C13.65 19 15.3 19 17 19 C17.226875 18.443125 17.45375 17.88625 17.6875 17.3125 C19.36167263 14.36276727 21.57832311 12.3626116 24 10 C25.02813611 8.68824014 26.04084432 7.3630107 27 6 C25.68 5.34 24.36 4.68 23 4 C23 3.01 23 2.02 23 1 C23.556875 1.474375 24.11375 1.94875 24.6875 2.4375 C27.18346074 4.12395996 29.0446237 4.58953107 32 5 C31.67 5.99 31.34 6.98 31 8 C33.64 8 36.28 8 39 8 C39 5.69 39 3.38 39 1 C40.11375 1.020625 41.2275 1.04125 42.375 1.0625 C45.83215921 1.26380718 45.83215921 1.26380718 48 0 C47.67 0.99 47.34 1.98 47 3 C45.02 3.33 43.04 3.66 41 4 C41 5.32 41 6.64 41 8 C41.598125 8.268125 42.19625 8.53625 42.8125 8.8125 C44.99847854 9.99917406 46.41332594 11.09599113 48 13 C48 13.66 48 14.32 48 15 C48.99 15.33 49.98 15.66 51 16 C49.21092846 16.48876697 47.4185408 16.96539669 45.625 17.4375 C44.62726563 17.70433594 43.62953125 17.97117187 42.6015625 18.24609375 C19.64059414 23.05245697 -10.66138873 22.81309682 -32 12 C-28.36804504 10.78934835 -26.93468371 11.37215185 -23.3125 12.4375 C-22.31863281 12.72496094 -21.32476562 13.01242188 -20.30078125 13.30859375 C-19.16189453 13.65083984 -19.16189453 13.65083984 -18 14 C-17.01470572 13.06894211 -16.03697556 12.12987519 -15.0625 11.1875 C-14.51722656 10.66542969 -13.97195312 10.14335938 -13.41015625 9.60546875 C-11.76480908 7.94187802 -11.76480908 7.94187802 -11 5 C-9.68 5.33 -8.36 5.66 -7 6 C-7.66 6 -8.32 6 -9 6 C-9 6.66 -9 7.32 -9 8 C-5.7 7.67 -2.4 7.34 1 7 C0.505 3.535 0.505 3.535 0 0 Z " fill="#6855EF" transform="translate(49,58)"/>
<path d="M0 0 C5.73690789 0.34421447 9.33751623 1.82951104 14 5 C14.33 5.99 14.66 6.98 15 8 C15.33 6.68 15.66 5.36 16 4 C19.05665662 4.90873575 20.72305703 5.67530825 22.8125 8.125 C24.40268838 11.97492977 24.2108574 14.85313784 24 19 C22.35 19.33 20.7 19.66 19 20 C19 18.35 19 16.7 19 15 C15.37 15 11.74 15 8 15 C10.97 15.33 13.94 15.66 17 16 C17.042721 17.66611905 17.04063832 19.33382885 17 21 C16.67 21.33 16.34 21.66 16 22 C16.66 22.33 17.32 22.66 18 23 C18 24.65 18 26.3 18 28 C17.34 28.33 16.68 28.66 16 29 C16 30.65 16 32.3 16 34 C12.78548731 35.60725635 9.56387464 35.05748185 6 35 C6 34.01 6 33.02 6 32 C5.21625 31.731875 4.4325 31.46375 3.625 31.1875 C1 30 1 30 -1 27 C-1.01171875 24.80859375 -1.01171875 24.80859375 -0.6875 22.4375 C-0.58824219 21.65246094 -0.48898438 20.86742188 -0.38671875 20.05859375 C0 18 0 18 1 16 C0.01 15.34 -0.98 14.68 -2 14 C-2 12.68 -2 11.36 -2 10 C-1.34 10 -0.68 10 0 10 C-0.33 9.34 -0.66 8.68 -1 8 C-1.125 4.4375 -1.125 4.4375 -1 1 C-0.67 0.67 -0.34 0.34 0 0 Z " fill="#BDB8FA" transform="translate(34,31)"/>
<path d="M0 0 C4.61664089 0.18843432 7.30109224 1.0128429 11.125 3.625 C14.22152736 5.76865504 14.22152736 5.76865504 18 5.8125 C18.66 5.544375 19.32 5.27625 20 5 C24.56347388 10.59393572 25.22559711 12.89369093 25 20 C24 21 24 21 21.4375 21.0625 C20.633125 21.041875 19.82875 21.02125 19 21 C19 19.35 19 17.7 19 16 C19.99 16 20.98 16 22 16 C22 15.34 22 14.68 22 14 C21.01 14.495 21.01 14.495 20 15 C17.87764193 15.1229938 15.75088537 15.17555682 13.625 15.1875 C12.48289062 15.20167969 11.34078125 15.21585938 10.1640625 15.23046875 C7.16063184 15.01170034 5.52074066 14.57080637 3 13 C2.01 14.485 2.01 14.485 1 16 C0.01 15.67 -0.98 15.34 -2 15 C-1.85973717 12.68715544 -1.71264442 10.37472409 -1.5625 8.0625 C-1.48128906 6.77472656 -1.40007812 5.48695312 -1.31640625 4.16015625 C-1 1 -1 1 0 0 Z " fill="#E6E5FC" transform="translate(72,30)"/>
<path d="M0 0 C0 0.99 0 1.98 0 3 C-1.98 3.33 -3.96 3.66 -6 4 C-6 5.32 -6 6.64 -6 8 C-5.401875 8.268125 -4.80375 8.53625 -4.1875 8.8125 C-2.00152146 9.99917406 -0.58667406 11.09599113 1 13 C1 13.66 1 14.32 1 15 C1.99 15.33 2.98 15.66 4 16 C-6.87144079 19.78137071 -17.63883685 19.31133036 -29 19 C-26.94044834 13.82703254 -25.67174652 11.31939884 -21 8 C-20.67 7.34 -20.34 6.68 -20 6 C-21.32 5.34 -22.64 4.68 -24 4 C-24 3.01 -24 2.02 -24 1 C-23.443125 1.474375 -22.88625 1.94875 -22.3125 2.4375 C-19.81653926 4.12395996 -17.9553763 4.58953107 -15 5 C-15.33 5.99 -15.66 6.98 -16 8 C-13.36 8 -10.72 8 -8 8 C-8 5.69 -8 3.38 -8 1 C-6.865625 1.020625 -5.73125 1.04125 -4.5625 1.0625 C-1.18424326 1.41577477 -1.18424326 1.41577477 0 0 Z " fill="#7975F8" transform="translate(96,58)"/>
<path d="M0 0 C5.73690789 0.34421447 9.33751623 1.82951104 14 5 C14.33 5.99 14.66 6.98 15 8 C15.33 6.68 15.66 5.36 16 4 C19.05665662 4.90873575 20.72305703 5.67530825 22.8125 8.125 C24.40268838 11.97492977 24.2108574 14.85313784 24 19 C22.35 19.33 20.7 19.66 19 20 C19 18.35 19 16.7 19 15 C18.34773438 15.03480469 17.69546875 15.06960937 17.0234375 15.10546875 C11.51434628 15.27610432 7.80761576 15.0363889 3 12 C2.67 12.99 2.34 13.98 2 15 C0.68 14.67 -0.64 14.34 -2 14 C-2 12.68 -2 11.36 -2 10 C-1.34 10 -0.68 10 0 10 C-0.33 9.34 -0.66 8.68 -1 8 C-1.125 4.4375 -1.125 4.4375 -1 1 C-0.67 0.67 -0.34 0.34 0 0 Z " fill="#E4E3FC" transform="translate(34,31)"/>
<path d="M0 0 C12.46843248 8.58535481 19.66955801 20.87753847 24.6796875 34.96484375 C24.6796875 35.62484375 24.6796875 36.28484375 24.6796875 36.96484375 C25.3396875 37.62484375 25.9996875 38.28484375 26.6796875 38.96484375 C26.0196875 38.96484375 25.3596875 38.96484375 24.6796875 38.96484375 C25.0096875 40.01671875 25.3396875 41.06859375 25.6796875 42.15234375 C26.51935532 45.35357732 26.87719654 47.70594455 26.6796875 50.96484375 C24.8671875 52.02734375 24.8671875 52.02734375 22.6796875 52.96484375 C21.1946875 52.46984375 21.1946875 52.46984375 19.6796875 51.96484375 C21.6596875 51.30484375 23.6396875 50.64484375 25.6796875 49.96484375 C22.09669446 32.23845712 15.09562138 13.75929852 -0.3203125 2.96484375 C-2.92055667 1.45839254 -5.5619848 0.1547106 -8.3203125 -1.03515625 C-9.04605469 -1.39351562 -9.77179688 -1.751875 -10.51953125 -2.12109375 C-19.08402957 -4.91620199 -31.10291126 -4.30302026 -39.15625 -0.359375 C-53.91966703 8.67455708 -63.59859141 22.59697832 -67.9453125 39.3046875 C-68.0690625 39.85253906 -68.1928125 40.40039062 -68.3203125 40.96484375 C-68.6503125 40.30484375 -68.9803125 39.64484375 -69.3203125 38.96484375 C-69.9803125 38.63484375 -70.6403125 38.30484375 -71.3203125 37.96484375 C-70.6603125 37.30484375 -70.0003125 36.64484375 -69.3203125 35.96484375 C-68.54844726 34.00193551 -67.82674324 32.01913813 -67.1328125 30.02734375 C-61.69176047 15.49104201 -52.45428258 3.48776294 -38.359375 -3.50390625 C-25.33437958 -8.39264448 -11.82968571 -7.25090147 0 0 Z " fill="#3F0CDD" transform="translate(86.3203125,18.03515625)"/>
<path d="M0 0 C0.99 0 1.98 0 3 0 C3 1.65 3 3.3 3 5 C3.33 5 3.66 5 4 5 C5.66821323 5.32550502 7.33499557 5.65846063 9 6 C9.625 8.375 9.625 8.375 10 11 C8 13 8 13 4.875 13.125 C3.92625 13.08375 2.9775 13.0425 2 13 C1.67 14.98 1.34 16.96 1 19 C-2.96 19.495 -2.96 19.495 -7 20 C-5.68 19.67 -4.36 19.34 -3 19 C-3.05220703 17.948125 -3.05220703 17.948125 -3.10546875 16.875 C-3.28894664 10.4445369 -2.6553877 5.86398118 0 0 Z " fill="#B8B4FA" transform="translate(87,47)"/>
<path d="M0 0 C6.04549895 0.37784368 10.21442501 4.61813153 14.6171875 8.3828125 C18.39516459 12.80112469 18.43510357 17.80001398 18.30859375 23.3515625 C17.60877439 29.35760715 13.38708806 32.96065127 8.94140625 36.609375 C5.50745735 39.06910499 1.33470087 42 -3 42 C-3 41.34 -3 40.68 -3 40 C-2.26394531 39.62488281 -1.52789062 39.24976563 -0.76953125 38.86328125 C6.87145548 34.85605307 12.75362832 31.37222169 16 23 C16.63225631 19.76846772 16.50626915 17.91020731 14.8984375 15.01953125 C11.53452468 10.22550576 7.80559393 7.26780387 3 4 C3 3.34 3 2.68 3 2 C2.01 1.67 1.02 1.34 0 1 C0 0.67 0 0.34 0 0 Z " fill="#7B56E7" transform="translate(110,54)"/>
<path d="M0 0 C7.24294071 6.39083003 11.16539328 14.5831067 14.140625 23.65234375 C14.97544243 26.2176176 14.97544243 26.2176176 17 29 C16.34 29 15.68 29 15 29 C15.33 30.051875 15.66 31.10375 16 32.1875 C16.83966782 35.38873357 17.19750904 37.7411008 17 41 C15.1875 42.0625 15.1875 42.0625 13 43 C12.01 42.67 11.02 42.34 10 42 C11.98 41.34 13.96 40.68 16 40 C13.40751941 27.17404339 9.20892537 15.51758683 1.75 4.6640625 C0 2 0 2 0 0 Z " fill="#4615DD" transform="translate(96,28)"/>
<path d="M0 0 C1.67542976 0.28604898 3.34385343 0.61781233 5 1 C4.95875 1.928125 4.9175 2.85625 4.875 3.8125 C4.72863661 7.15809719 4.72863661 7.15809719 7 10 C4.69 10 2.38 10 0 10 C0.99 10.66 1.98 11.32 3 12 C2.34 13.32 1.68 14.64 1 16 C0.01 15.67 -0.98 15.34 -2 15 C-1.85973717 12.68715544 -1.71264442 10.37472409 -1.5625 8.0625 C-1.48128906 6.77472656 -1.40007812 5.48695312 -1.31640625 4.16015625 C-1 1 -1 1 0 0 Z " fill="#D5D3FC" transform="translate(72,30)"/>
<path d="M0 0 C0 0.99 0 1.98 0 3 C-1.98 3.33 -3.96 3.66 -6 4 C-6 5.32 -6 6.64 -6 8 C-5.401875 8.268125 -4.80375 8.53625 -4.1875 8.8125 C-2.00152146 9.99917406 -0.58667406 11.09599113 1 13 C1 13.66 1 14.32 1 15 C1.99 15.33 2.98 15.66 4 16 C-0.84241633 17.33583899 -4.93437617 18.25328119 -10 18 C-6.5980513 15.90649311 -3.94727588 15.82057837 0 16 C-2.0706428 12.56480483 -2.0706428 12.56480483 -5 10 C-8.7174474 9.46744433 -12.26996191 9.64724684 -16 10 C-16 9.67 -16 9.34 -16 9 C-13.36 8.67 -10.72 8.34 -8 8 C-8 5.69 -8 3.38 -8 1 C-6.865625 1.020625 -5.73125 1.04125 -4.5625 1.0625 C-1.18424326 1.41577477 -1.18424326 1.41577477 0 0 Z " fill="#5025E1" transform="translate(96,58)"/>
<path d="M0 0 C2.48884244 1.83957919 3.00265369 3.01083592 3.75 6.0625 C4.05161541 10.81294278 3.61577379 15.29169885 3 20 C1 16.25 1 16.25 1 14 C-1.64 14.66 -4.28 15.32 -7 16 C-6.34 13.69 -5.68 11.38 -5 9 C-5.93972656 9.03480469 -5.93972656 9.03480469 -6.8984375 9.0703125 C-8.12433594 9.09738281 -8.12433594 9.09738281 -9.375 9.125 C-10.18710937 9.14820313 -10.99921875 9.17140625 -11.8359375 9.1953125 C-14 9 -14 9 -16 7 C-11.71 7.33 -7.42 7.66 -3 8 C-3 9.65 -3 11.3 -3 13 C-1.68 12.67 -0.36 12.34 1 12 C1.19814261 5.91591528 1.19814261 5.91591528 0 0 Z " fill="#5A2FE2" transform="translate(56,38)"/>
<path d="M0 0 C4.91343094 4.75493316 4.91343094 4.75493316 5.1328125 7.91015625 C5.11111111 13.88888889 5.11111111 13.88888889 4 15 C2.33382885 15.04063832 0.66611905 15.042721 -1 15 C-1 13.35 -1 11.7 -1 10 C-0.01 10 0.98 10 2 10 C2 9.34 2 8.68 2 8 C0.35 8.33 -1.3 8.66 -3 9 C-2.505 8.62875 -2.01 8.2575 -1.5 7.875 C0.59755514 5.25305607 0.21743835 3.26157528 0 0 Z " fill="#D0CDFB" transform="translate(92,36)"/>
<path d="M0 0 C0.66 0.33 1.32 0.66 2 1 C-0.97 3.97 -0.97 3.97 -4 7 C-3.38511719 7.18175781 -2.77023438 7.36351562 -2.13671875 7.55078125 C-0.92435547 7.92783203 -0.92435547 7.92783203 0.3125 8.3125 C1.51326172 8.67794922 1.51326172 8.67794922 2.73828125 9.05078125 C5.09964573 10.04182023 6.33879993 11.08074943 8 13 C7.39671875 12.7834375 6.7934375 12.566875 6.171875 12.34375 C5.37265625 12.0653125 4.5734375 11.786875 3.75 11.5 C2.96109375 11.2215625 2.1721875 10.943125 1.359375 10.65625 C-1.23412738 9.82135139 -1.23412738 9.82135139 -5 10 C-5 12.97 -5 15.94 -5 19 C-5.66 19 -6.32 19 -7 19 C-7.66 17.02 -8.32 15.04 -9 13 C-9.99 13.495 -9.99 13.495 -11 14 C-9.57442379 10.82096506 -7.8226848 8.46341568 -5.5 5.875 C-4.8915625 5.19179688 -4.283125 4.50859375 -3.65625 3.8046875 C-2.46695076 2.50880012 -1.24373566 1.24373566 0 0 Z " fill="#6B51EB" transform="translate(39,22)"/>
<path d="M0 0 C1.67542976 0.28604898 3.34385343 0.61781233 5 1 C4.01 1.495 4.01 1.495 3 2 C3.66 4.31 4.32 6.62 5 9 C4.01 9.66 3.02 10.32 2 11 C2.33 11.99 2.66 12.98 3 14 C1.68 14.33 0.36 14.66 -1 15 C-1.33 13.35 -1.66 11.7 -2 10 C-1.34 10 -0.68 10 0 10 C-0.33 9.34 -0.66 8.68 -1 8 C-1.125 4.4375 -1.125 4.4375 -1 1 C-0.67 0.67 -0.34 0.34 0 0 Z " fill="#CFCBFA" transform="translate(34,31)"/>
<path d="M0 0 C-0.99 0.33 -1.98 0.66 -3 1 C-3.33 1.99 -3.66 2.98 -4 4 C-5.97946592 5.36363208 -7.9819245 6.69418644 -10 8 C-10.7425 8.7425 -11.485 9.485 -12.25 10.25 C-12.8275 10.8275 -13.405 11.405 -14 12 C-14.66 12 -15.32 12 -16 12 C-15.44846785 8.26275228 -14.03850239 6.7764009 -11.1875 4.375 C-10.50042969 3.78460938 -9.81335938 3.19421875 -9.10546875 2.5859375 C-3.93227092 -1.31075697 -3.93227092 -1.31075697 0 0 Z " fill="#AF9CF1" transform="translate(18,55)"/>
<path d="M0 0 C2 2 2 2 2.1953125 3.9453125 C2.13020833 5.96354167 2.06510417 7.98177083 2 10 C0.35 10.33 -1.3 10.66 -3 11 C-3 9.35 -3 7.7 -3 6 C-3.66 6 -4.32 6 -5 6 C-5 5.34 -5 4.68 -5 4 C-3.37373596 2.61767557 -1.7074998 1.28062485 0 0 Z " fill="#C8C3F9" transform="translate(56,40)"/>
<path d="M0 0 C1.65 0.33 3.3 0.66 5 1 C5.625 3.375 5.625 3.375 6 6 C4 8 4 8 1.375 8.125 C0.59125 8.08375 -0.1925 8.0425 -1 8 C-1.08226668 4.95613276 -0.97608217 2.92824652 0 0 Z " fill="#A295F5" transform="translate(91,52)"/>
<path d="M0 0 C0.625 2.875 0.625 2.875 1 6 C-1 8 -1 8 -3.625 8.125 C-4.40875 8.08375 -5.1925 8.0425 -6 8 C-6 5.69 -6 3.38 -6 1 C-4 0 -4 0 0 0 Z " fill="#A396F5" transform="translate(57,52)"/>
<path d="M0 0 C0.66 0 1.32 0 2 0 C1.89300781 0.65226562 1.78601563 1.30453125 1.67578125 1.9765625 C0.89611991 7.6605452 0.81784577 10.98198755 4 16 C4.33 16.99 4.66 17.98 5 19 C7.00016466 20.20882096 7.00016466 20.20882096 9 21 C8.01 21.33 7.02 21.66 6 22 C5.01830524 20.87720538 4.03972702 19.75168527 3.0625 18.625 C2.51722656 17.99851562 1.97195312 17.37203125 1.41015625 16.7265625 C-1.14461601 13.59855879 -1.13545884 11.47436022 -1.125 7.5 C-1.12757812 6.5203125 -1.13015625 5.540625 -1.1328125 4.53125 C-1 2 -1 2 0 0 Z " fill="#4C18DE" transform="translate(1,67)"/>
<path d="M0 0 C0.59167969 0.13277344 1.18335937 0.26554687 1.79296875 0.40234375 C3.41964596 0.76589151 5.04729418 1.125116 6.67578125 1.48046875 C8.41680598 1.86963898 10.14878039 2.29968184 11.875 2.75 C14.30009243 3.26802406 14.30009243 3.26802406 17 1 C16.67 2.32 16.34 3.64 16 5 C18.97 5.33 21.94 5.66 25 6 C25 6.33 25 6.66 25 7 C15.80950501 6.81784605 8.39861517 4.6710076 0 1 C0 0.67 0 0.34 0 0 Z " fill="#572DE2" transform="translate(17,69)"/>
<path d="M0 0 C0.721875 0.474375 1.44375 0.94875 2.1875 1.4375 C4.89475226 2.94152903 6.96194275 3.56599182 10 4 C10 4.66 10 5.32 10 6 C8.46875 7.2890625 8.46875 7.2890625 6.5 8.625 C5.8503125 9.07101563 5.200625 9.51703125 4.53125 9.9765625 C3.77328125 10.48316406 3.77328125 10.48316406 3 11 C2.34 10.67 1.68 10.34 1 10 C2.32 8.35 3.64 6.7 5 5 C4.360625 4.731875 3.72125 4.46375 3.0625 4.1875 C1 3 1 3 0 0 Z " fill="#5E36E4" transform="translate(71,59)"/>
<path d="M0 0 C5.29315952 1.48870112 9.26907096 5.08601135 13 9 C13.33 9.99 13.66 10.98 14 12 C10.56067557 10.85355852 9.59212912 9.33483449 7.40625 6.5625 C5.25120788 4.16800875 2.71819163 2.70677149 0 1 C0 0.67 0 0.34 0 0 Z " fill="#6E45E4" transform="translate(113,57)"/>
<path d="M0 0 C0 0.99 0 1.98 0 3 C-1.98 3.33 -3.96 3.66 -6 4 C-6 4.99 -6 5.98 -6 7 C-6.66 7 -7.32 7 -8 7 C-8 5.02 -8 3.04 -8 1 C-6.865625 1.020625 -5.73125 1.04125 -4.5625 1.0625 C-1.18424326 1.41577477 -1.18424326 1.41577477 0 0 Z " fill="#5E39E5" transform="translate(96,58)"/>
<path d="M0 0 C-0.99 0.33 -1.98 0.66 -3 1 C-3.33 1.99 -3.66 2.98 -4 4 C-6.0625 4.6875 -6.0625 4.6875 -8 5 C-7.75 3.125 -7.75 3.125 -7 1 C-4.09342573 -1.03460199 -3.47133392 -1.15711131 0 0 Z " fill="#B8A7F2" transform="translate(18,55)"/>
<path d="M0 0 C1.32 0.99 2.64 1.98 4 3 C3.34 4.32 2.68 5.64 2 7 C1.01 6.67 0.02 6.34 -1 6 C-0.67 4.02 -0.34 2.04 0 0 Z " fill="#CBC5F9" transform="translate(71,39)"/>
<path d="M0 0 C0.99 0.33 1.98 0.66 3 1 C-0.625 7.875 -0.625 7.875 -4 9 C-2.96650544 6.93301088 -1.931932 4.86764555 -0.875 2.8125 C0.07245818 1.18535061 0.07245818 1.18535061 0 0 Z " fill="#3608E0" transform="translate(105,95)"/>
<path d="M0 0 C2.64 1.98 5.28 3.96 8 6 C7.67 6.99 7.34 7.98 7 9 C5.82737096 7.88121617 4.66204862 6.75476949 3.5 5.625 C2.8503125 4.99851562 2.200625 4.37203125 1.53125 3.7265625 C0 2 0 2 0 0 Z " fill="#3305E0" transform="translate(88,20)"/>
<path d="M0 0 C2.56564327 1.28282164 2.88473433 2.39771344 4 5 C4.36784131 6.3242287 4.71202981 7.65613912 5 9 C0.125 4.375 0.125 4.375 -1 1 C-0.67 0.67 -0.34 0.34 0 0 Z " fill="#3508E1" transform="translate(21,95)"/>
</svg>
