<svg version="1.1" id="Layer_1" xmlns="http://www.w3.org/2000/svg" xmlns:xlink="http://www.w3.org/1999/xlink" x="0px" y="0px"
	 width="100%" viewBox="0 0 512 512" enable-background="new 0 0 512 512" xml:space="preserve">
<path fill="#000000" opacity="1.000000" stroke="none" 
	d="
M513.000000,169.000000 
	C513.000000,283.972046 513.000000,398.444092 513.000000,512.958069 
	C342.402954,512.958069 171.805878,512.958069 1.104406,512.958069 
	C1.104406,342.444641 1.104406,171.889221 1.104406,1.166890 
	C171.666534,1.166890 342.333252,1.166890 513.000000,1.166890 
	C513.000000,56.860752 513.000000,112.680374 513.000000,169.000000 
M441.616272,93.978119 
	C443.894409,93.663239 446.767365,94.121353 448.350464,92.903198 
	C456.326721,86.765709 464.070435,80.311012 471.681976,73.720741 
	C475.652435,70.283012 475.906433,66.919815 473.170898,63.765816 
	C470.972443,61.231030 466.031372,61.151810 462.752350,63.878811 
	C455.767578,69.687721 448.952026,75.700333 441.954865,81.493927 
	C438.875214,84.043861 437.286987,86.994453 437.180298,91.175125 
	C432.718994,90.076805 429.187866,91.884697 425.936798,94.700531 
	C422.811493,97.407425 422.092926,101.385490 424.264496,104.436073 
	C426.374634,107.400291 430.338959,107.560783 434.020355,105.467331 
	C438.676178,102.819771 440.162384,98.592392 441.616272,93.978119 
M90.994820,459.900146 
	C91.719681,462.891846 92.626701,465.751434 96.420845,465.962738 
	C114.641502,466.977570 129.826797,460.015411 142.098465,447.151215 
	C151.629074,437.160339 156.953232,424.797455 158.906677,410.972046 
	C160.196701,401.842041 158.325195,399.196503 149.023605,398.053802 
	C148.662888,395.055725 148.302170,392.057678 148.245102,388.416718 
	C150.331924,384.272522 152.618896,380.215149 154.461945,375.965240 
	C157.816132,368.230835 159.644806,360.345123 159.207581,351.628387 
	C158.457275,336.670319 142.813354,328.095825 129.349228,331.779449 
	C123.878540,333.276184 121.697525,335.849701 123.157616,340.479340 
	C124.465530,344.626465 127.608780,345.033936 131.877487,344.339661 
	C141.787247,342.727997 146.567444,346.904053 146.393021,355.106201 
	C146.266556,361.054016 143.041351,366.935913 141.004623,372.184601 
	C140.052383,370.709259 139.100143,369.233948 138.216354,367.022095 
	C137.834641,364.419891 138.320145,361.112518 136.894455,359.359222 
	C133.720734,355.456146 129.965851,351.765442 125.782730,348.990875 
	C111.751091,339.684082 96.411880,336.034485 79.526085,338.918121 
	C59.953514,342.260651 45.742085,352.909729 35.729633,369.652435 
	C29.022533,380.867981 27.244890,393.162994 27.988779,406.007812 
	C28.847967,420.843445 34.887604,433.381470 44.771713,444.207397 
	C47.370625,447.053925 50.567646,447.987976 54.756744,446.214508 
	C57.204105,448.095062 59.651466,449.975586 61.693958,452.477631 
	C55.511272,453.983917 49.397606,456.078033 43.124542,456.814575 
	C37.898540,457.428192 34.143845,453.163239 34.054581,447.816467 
	C34.008175,445.036804 34.408043,442.237671 34.757610,439.466400 
	C35.238827,435.651428 34.541466,432.323395 30.457447,431.135284 
	C26.150602,429.882294 22.885660,431.882019 22.046173,436.392426 
	C21.327272,440.254913 21.061079,444.250305 21.054111,448.187714 
	C21.031775,460.812134 30.294846,469.722900 42.997673,470.045563 
	C56.572048,470.390350 67.944397,464.584595 79.918739,458.023773 
	C83.585808,458.402771 87.252869,458.781769 90.994820,459.900146 
M457.272736,109.119156 
	C453.638397,106.863594 450.257843,107.124153 446.801666,109.730698 
	C429.414703,122.843262 411.836395,135.705811 394.588074,148.997192 
	C384.616821,156.680954 373.600647,160.955292 361.246033,158.709961 
	C344.579559,155.680954 333.758148,145.321411 329.571198,128.819672 
	C325.402191,112.388481 331.480743,98.927872 344.049622,88.779663 
	C358.699463,76.951302 374.162384,66.128586 389.296844,54.902348 
	C398.434326,48.124508 407.691437,41.505444 416.741302,34.613476 
	C419.910583,32.199894 421.211914,28.695141 419.170837,24.896439 
	C417.334351,21.478550 413.164856,21.027124 409.101746,23.535778 
	C407.701263,24.400465 406.399719,25.429783 405.079254,26.418959 
	C382.991882,42.964615 361.220306,59.954758 338.725067,75.925667 
	C321.031738,88.487343 311.205475,111.550201 316.964447,133.394272 
	C326.355652,169.015488 367.920074,182.855927 395.496552,164.029099 
	C414.985779,150.723557 433.448395,135.922226 452.595215,122.101593 
	C457.483398,118.573204 460.269135,115.003067 458.603394,109.245003 
	C459.555756,109.880737 460.476288,110.571739 461.466309,111.142090 
	C464.732056,113.023453 467.650543,111.536835 469.175720,109.016525 
	C470.441986,106.924049 471.267670,103.267288 470.246796,101.451157 
	C469.213104,99.612206 465.298065,97.902023 463.330811,98.477898 
	C461.155212,99.114746 459.504974,102.262001 458.132141,104.611679 
	C457.484436,105.720345 458.018799,107.519615 457.272736,109.119156 
M88.149315,206.071548 
	C94.568588,230.642593 119.127632,243.889206 141.242416,239.082932 
	C166.588547,233.574387 181.429062,211.180389 176.501663,185.856354 
	C171.215240,158.687241 147.402695,145.595764 122.665413,150.376328 
	C97.448334,155.249603 81.936211,180.415405 88.149315,206.071548 
M154.508377,8.840333 
	C152.533279,8.001954 150.624939,6.911827 148.571899,6.367317 
	C137.756760,3.498905 130.778000,10.510003 133.594070,21.316111 
	C134.094070,23.234800 134.161072,25.481947 135.242523,26.995399 
	C139.457504,32.894108 138.336075,38.951302 136.850021,45.360447 
	C132.067230,65.987885 150.341949,88.971451 176.387970,85.904190 
	C178.734329,85.627869 181.376358,86.345886 183.640579,87.222969 
	C187.614151,88.762184 191.265121,91.205444 195.297821,92.504517 
	C201.795670,94.597679 208.247818,89.949608 207.847260,83.217720 
	C207.538437,78.027260 205.801987,72.931831 204.866776,67.764023 
	C204.441772,65.415474 204.202499,62.988884 204.259338,60.606770 
	C204.379257,55.581680 205.485809,50.472851 204.886581,45.556961 
	C202.619003,26.954374 187.605911,16.411882 170.052048,16.235868 
	C166.258713,16.197832 163.542267,15.380769 160.803604,13.253173 
	C158.973846,11.831676 157.069550,10.506098 154.508377,8.840333 
M412.036011,396.471405 
	C409.056274,399.604828 405.627686,402.423431 403.171967,405.924408 
	C390.336456,424.223328 391.497253,448.997620 406.661713,466.475861 
	C423.621277,486.023102 457.422180,487.748199 476.212280,469.253021 
	C489.656464,456.019836 494.086304,439.752747 489.596191,421.791656 
	C485.181610,404.132507 473.698029,392.100098 455.770447,387.511902 
	C440.223602,383.532959 425.509277,385.747498 412.036011,396.471405 
M371.115997,87.013885 
	C369.949585,87.009796 368.780975,87.051064 367.617096,86.994881 
	C346.529236,85.976830 329.432037,106.886887 334.862000,128.417633 
	C338.318207,142.122009 351.213715,153.486755 368.177826,153.256195 
	C387.424866,152.994629 405.288239,134.824631 399.040436,110.974808 
	C395.414673,97.134079 385.492615,89.970650 371.115997,87.013885 
M281.815002,395.004211 
	C269.593903,399.396637 262.327454,408.801208 262.004456,420.643829 
	C261.710846,431.407990 268.310364,442.206421 277.750397,446.310242 
	C288.715424,451.076996 300.701965,449.521118 309.168793,440.465637 
	C318.022430,430.996490 319.687592,418.333771 312.823120,406.640808 
	C307.107880,396.905457 293.796356,391.736877 281.815002,395.004211 
M472.181183,281.003937 
	C454.738373,278.616058 440.373169,293.757294 441.832275,309.588593 
	C442.774414,319.810974 448.583740,330.199005 458.226868,333.485870 
	C469.800568,337.430817 480.394379,336.273529 488.851898,327.366150 
	C496.491028,319.320709 498.208710,309.076599 494.634064,298.615601 
	C491.195618,288.553040 483.552277,282.853607 472.181183,281.003937 
M177.112823,463.325958 
	C176.278336,459.921173 173.545456,457.797516 170.658600,458.394836 
	C168.194229,458.904785 165.291092,461.284363 164.186142,463.601776 
	C161.248856,469.762054 156.953812,474.011658 150.918335,477.083649 
	C148.820526,478.151428 146.983704,480.759521 146.168060,483.067200 
	C145.067841,486.179932 147.139984,488.431824 150.119186,489.549408 
	C157.094223,492.166016 161.450851,497.385986 164.432724,503.927490 
	C165.759033,506.837067 167.877335,508.932861 170.967896,507.829803 
	C173.271072,507.007782 175.850388,505.141266 176.920578,503.035431 
	C179.742691,497.482269 183.724258,493.503082 189.035019,490.325195 
	C191.736877,488.708405 194.902863,486.007294 195.528030,483.264984 
	C196.259598,480.055817 193.024948,477.529419 189.701111,476.244598 
	C183.818634,473.970734 179.845245,469.768982 177.112823,463.325958 
M323.569855,275.856384 
	C325.138458,264.141754 317.382812,252.880417 306.515442,251.093048 
	C291.901459,248.689484 280.884247,256.545624 279.233612,271.439941 
	C278.209564,280.680298 284.843414,292.796967 298.366180,294.864044 
	C309.568573,296.576477 321.813751,288.694641 323.569855,275.856384 
M34.975487,77.553955 
	C40.863441,82.364944 47.420296,83.889877 54.848511,81.910683 
	C66.329506,78.851669 72.650589,68.797012 70.955482,56.024597 
	C69.706001,46.609978 59.771526,38.233131 49.585423,38.005157 
	C40.673195,37.805695 32.758121,43.035282 28.838663,51.371082 
	C25.297880,58.901527 26.371639,70.382675 34.975487,77.553955 
M62.348965,232.872726 
	C68.314972,229.409668 69.702332,223.365601 64.778778,221.064407 
	C57.075359,217.463943 51.373169,212.362198 47.958839,204.449615 
	C47.257954,202.825363 44.292736,201.160782 42.502243,201.292709 
	C40.461475,201.443085 37.550541,203.150208 36.788532,204.936234 
	C33.760933,212.032379 29.008677,216.938736 22.014595,220.205521 
	C20.153858,221.074631 18.310251,224.127716 18.293583,226.192886 
	C18.276962,228.252502 20.079922,231.329773 21.925648,232.221893 
	C28.681026,235.487061 33.486496,240.191406 36.723083,246.986511 
	C37.609318,248.847153 40.754799,250.861588 42.665150,250.683044 
	C44.889420,250.475143 47.892738,248.381577 48.809597,246.326340 
	C51.537624,240.211121 55.675007,235.872818 62.348965,232.872726 
M293.000275,218.535187 
	C295.730743,216.706238 298.662537,215.110474 301.131775,212.978897 
	C303.340790,211.071915 306.001495,208.842682 306.719971,206.269058 
	C307.613129,203.069931 304.656616,201.186035 301.713379,199.847992 
	C295.284943,196.925461 290.509857,192.329926 287.941040,185.570511 
	C287.450989,184.281021 286.396698,182.975006 285.247711,182.209473 
	C281.537018,179.737091 277.686340,181.153702 275.411346,186.323868 
	C272.654999,192.587997 268.370392,197.166229 262.166321,199.786804 
	C259.134521,201.067413 256.952545,202.552826 257.010345,206.150238 
	C257.068970,209.795975 259.067078,211.591187 262.302002,213.076752 
	C268.115814,215.746567 272.693207,219.801285 275.296692,226.027542 
	C276.147797,228.063019 278.533783,230.168777 280.647430,230.797043 
	C283.800751,231.734360 286.688019,230.570953 288.140137,226.864563 
	C289.215576,224.119492 291.030609,221.664154 293.000275,218.535187 
M412.474213,304.035309 
	C415.241272,297.265320 419.796234,292.102295 426.771851,289.724579 
	C432.341949,287.825958 432.568329,279.938934 427.328735,277.154205 
	C426.011536,276.454132 424.745850,275.611176 423.359131,275.095917 
	C418.092896,273.139130 415.164490,268.881439 413.252350,264.078918 
	C411.971802,260.862701 410.397064,258.443390 406.936035,258.092834 
	C402.990234,257.693207 401.026520,260.307007 399.682281,263.642578 
	C397.288788,269.581818 393.261017,273.987427 387.214600,276.362488 
	C383.939514,277.648926 380.640686,279.771484 381.404480,283.331299 
	C381.946991,285.859467 384.733826,288.490234 387.192261,289.906219 
	C392.992645,293.246948 397.614471,297.262451 400.129913,303.685822 
	C402.349182,309.352936 408.211090,309.713348 412.474213,304.035309 
M464.373932,51.241005 
	C474.166595,43.669750 484.058563,36.221531 493.689972,28.450411 
	C496.490082,26.191174 497.173126,22.668831 494.856262,19.516544 
	C492.391785,16.163326 488.683105,15.826303 485.614807,18.093727 
	C476.315948,24.965467 467.236115,32.140640 458.216553,39.379028 
	C455.531647,41.533730 452.950256,43.988049 454.913116,48.256744 
	C456.841461,52.450470 460.121887,52.215485 464.373932,51.241005 
M422.032257,67.448936 
	C420.651550,68.630112 419.291473,69.836418 417.886597,70.988113 
	C411.747162,76.021133 405.494507,80.922379 399.490631,86.111725 
	C396.631226,88.583206 396.068665,91.889122 398.664551,94.967163 
	C401.242645,98.024117 404.525604,97.735664 407.617371,95.819000 
	C409.854767,94.431976 411.860535,92.664062 413.933655,91.020645 
	C421.321808,85.163773 428.758270,79.365112 436.044342,73.383492 
	C439.335297,70.681747 439.105896,66.922676 436.818512,64.012909 
	C434.506439,61.071667 431.101715,61.154938 427.953674,63.430756 
	C426.218170,64.685432 424.414825,65.846298 422.032257,67.448936 
M424.104614,49.514011 
	C425.674683,49.356770 427.637909,49.745148 428.746002,48.946732 
	C433.265137,45.690540 437.689728,42.256004 441.818939,38.522015 
	C444.664062,35.949181 445.054199,32.076927 441.942352,29.912497 
	C439.904327,28.494953 435.725677,28.122990 433.604095,29.286118 
	C429.356323,31.614882 425.674438,35.120808 422.109283,38.509357 
	C418.473236,41.965302 419.152588,46.014038 424.104614,49.514011 
M402.474335,54.020081 
	C401.989288,54.476070 401.543091,54.984058 401.013031,55.379776 
	C396.918884,58.436283 395.885162,62.103130 398.190216,65.490425 
	C400.339844,68.649307 404.805267,68.752090 408.756348,65.725029 
	C411.508545,63.616451 414.264099,61.511978 416.997711,59.379467 
	C420.141205,56.927235 421.247925,52.089111 418.983124,49.224380 
	C416.326660,45.864246 412.798676,46.421448 409.615601,48.302490 
	C407.217346,49.719738 405.183899,51.754307 402.474335,54.020081 
M451.538513,13.966269 
	C449.992218,15.202624 448.381989,16.367971 446.913239,17.690462 
	C444.066589,20.253603 443.673920,23.493246 445.488861,26.619493 
	C447.270050,29.687582 450.368927,31.017830 453.508850,28.883732 
	C457.300842,26.306429 461.115387,23.471344 463.994934,19.983891 
	C465.168365,18.562660 464.638580,14.720510 463.520538,12.755371 
	C462.684845,11.286489 459.618835,10.357825 457.627991,10.483934 
	C455.713196,10.605223 453.903809,12.390901 451.538513,13.966269 
M479.700378,63.943573 
	C486.030701,63.352058 490.122711,59.073696 493.381775,54.438187 
	C494.444397,52.926746 493.394684,48.528275 491.813293,46.977840 
	C490.401276,45.593460 486.646271,45.531715 484.432495,46.316860 
	C481.963196,47.192635 480.111298,49.740044 477.911621,51.458664 
	C472.258850,55.875320 472.619049,60.514164 479.700378,63.943573 
M294.825806,474.533081 
	C298.318542,470.540802 299.207733,465.786743 296.663177,462.426331 
	C294.247070,459.235535 290.786011,458.279755 286.979675,459.587860 
	C282.063812,461.277344 279.774109,465.913910 281.333191,470.585724 
	C282.970062,475.490570 287.895294,477.159180 294.825806,474.533081 
M240.308945,413.359863 
	C235.975281,415.150238 234.031799,418.738586 235.250809,422.908417 
	C236.011139,425.509216 238.425629,428.296021 240.849182,429.570984 
	C243.855728,431.152557 247.443192,430.070435 249.730728,427.233032 
	C252.187531,424.185760 252.716370,420.622803 250.917267,417.009399 
	C248.837036,412.831329 245.016205,412.780304 240.308945,413.359863 
M314.364288,392.605621 
	C314.790314,393.112213 315.184143,393.650513 315.647491,394.120270 
	C319.062042,397.582062 324.588013,398.084137 328.130615,395.270538 
	C330.927124,393.049500 331.799713,388.127625 329.962372,384.937927 
	C327.378235,380.451691 322.790100,378.849396 318.106384,381.082886 
	C313.426971,383.314301 313.860535,387.648071 314.364288,392.605621 
M297.870667,373.085236 
	C297.260040,371.927826 296.900696,370.064606 295.993042,369.741516 
	C292.909424,368.643799 289.349396,366.969971 286.518707,367.684540 
	C284.272095,368.251740 282.148773,371.752289 281.195740,374.392578 
	C279.948578,377.847687 282.045319,380.642120 285.120789,382.572632 
	C288.303467,384.570404 291.211121,384.015289 294.409485,382.344696 
	C298.133881,380.399353 298.020020,377.223633 297.870667,373.085236 
M343.869995,419.081390 
	C341.060486,413.289276 335.909790,411.226990 331.064362,413.954132 
	C327.018616,416.231171 325.968719,422.218231 328.845520,426.553375 
	C331.198029,430.098419 334.679138,430.764465 338.355011,429.661499 
	C343.081482,428.243286 344.405518,424.476807 343.869995,419.081390 
M355.176208,494.625519 
	C355.482758,495.731659 355.703461,496.870544 356.110748,497.938263 
	C357.873688,502.559692 362.503967,504.435516 367.634613,502.657532 
	C371.315613,501.381927 373.261383,496.633636 372.297119,492.463684 
	C371.290161,488.109070 368.098663,486.312012 364.421356,486.226318 
	C359.597656,486.113922 356.530457,489.106140 355.176208,494.625519 
M191.108810,297.551239 
	C197.366623,297.996429 200.462387,295.817719 201.330917,290.357208 
	C201.993118,286.193878 199.563889,282.141449 195.797577,281.126434 
	C190.512161,279.701996 186.561127,281.799438 184.919510,286.901184 
	C183.343979,291.797516 185.056320,295.005646 191.108810,297.551239 
M302.648804,40.674164 
	C302.316406,37.840794 302.742371,34.599129 301.485016,32.263744 
	C299.246521,28.106033 294.550995,27.713066 291.135376,29.815405 
	C288.685150,31.323505 286.088074,35.438435 286.468353,37.949371 
	C286.902740,40.817471 290.093475,44.193336 292.941589,45.540031 
	C296.628693,47.283455 300.339508,45.490780 302.648804,40.674164 
M488.955200,163.878677 
	C488.172455,159.788437 485.712708,156.849655 481.594299,157.225449 
	C478.660736,157.493134 474.687286,158.927170 473.397583,161.136475 
	C472.092224,163.372528 472.713745,167.576065 473.950378,170.240570 
	C475.502228,173.584167 479.056763,174.535339 482.920013,173.576721 
	C487.686371,172.394028 489.186401,169.173157 488.955200,163.878677 
M42.569763,328.995300 
	C48.137833,328.707703 50.864487,326.265991 50.994503,321.451019 
	C51.145630,315.853912 48.462376,312.403839 43.667179,312.029724 
	C38.974182,311.663574 34.666428,315.375916 34.116890,320.260040 
	C33.674957,324.187805 36.962078,327.947662 42.569763,328.995300 
M25.738512,150.165878 
	C20.935766,152.717102 19.308058,158.279373 22.103380,162.588043 
	C24.541868,166.346695 29.199043,167.612488 33.391445,165.656097 
	C36.866619,164.034424 38.574440,159.137634 37.101643,155.018066 
	C35.429802,150.341766 32.096870,148.768265 25.738512,150.165878 
M216.555573,160.028320 
	C220.360245,162.731277 225.428604,162.834717 228.363098,160.014038 
	C231.513428,156.985901 231.931610,153.345993 229.741959,149.597321 
	C226.945801,144.810303 222.412521,143.878357 217.391876,146.874512 
	C213.331741,149.297485 212.828918,153.847931 216.555573,160.028320 
M314.004883,453.600739 
	C314.275726,459.527618 317.125793,462.862457 321.975464,462.927063 
	C326.117188,462.982239 330.615814,459.120026 330.968353,455.206451 
	C331.373016,450.714661 328.568878,446.808197 324.415649,446.077789 
	C318.392975,445.018616 315.467377,446.902588 314.004883,453.600739 
M257.356903,462.921722 
	C258.585602,462.438049 259.827820,461.985931 261.040558,461.465088 
	C265.609497,459.502899 265.653198,455.318268 264.697662,451.720978 
	C264.115326,449.528656 261.539825,446.900391 259.363068,446.315338 
	C255.786819,445.354126 251.782242,445.431305 249.527786,449.859924 
	C246.340851,456.120270 248.517609,460.351898 257.356903,462.921722 
M431.147339,246.760468 
	C430.014374,245.816788 428.998749,244.655884 427.727112,243.968872 
	C423.371063,241.615555 418.609680,243.293686 416.062195,247.921295 
	C414.148804,251.396957 415.643402,256.230042 419.381531,258.654816 
	C423.131470,261.087341 428.723022,260.412567 430.706390,256.433044 
	C431.969421,253.898834 431.395752,250.449203 431.147339,246.760468 
M249.476196,384.195648 
	C249.151825,385.131348 248.344620,386.222992 248.587631,386.975433 
	C249.578064,390.042206 250.109375,394.450745 252.288162,395.627289 
	C254.808121,396.988068 259.423828,396.458954 262.152740,394.965393 
	C266.045044,392.835175 266.064087,385.992554 263.093811,382.677002 
	C259.817871,379.020264 254.606857,379.386688 249.476196,384.195648 
M444.209442,50.430481 
	C443.183838,51.270020 442.222839,52.208134 441.120544,52.930664 
	C437.770813,55.126354 437.185120,58.414387 438.524719,61.647881 
	C439.928711,65.036812 443.349365,65.629677 446.601685,64.835846 
	C448.230072,64.438393 449.532959,62.837891 451.079712,61.949894 
	C455.087891,59.648788 456.244202,56.045845 454.340637,52.224800 
	C452.368805,48.266743 448.656342,48.171116 444.209442,50.430481 
M428.809265,11.106159 
	C428.284698,11.502063 427.723816,11.858301 427.241455,12.300263 
	C423.964569,15.302659 423.427704,18.809998 426.018829,22.369976 
	C428.419922,25.668873 431.953339,26.777020 435.487854,24.554825 
	C438.566284,22.619396 441.246887,19.984747 439.268890,15.558194 
	C437.305420,11.164213 434.330597,9.640407 428.809265,11.106159 
M72.308990,45.580894 
	C75.971649,46.228378 79.811981,46.836216 81.888878,42.792393 
	C83.664299,39.335594 83.008232,35.805817 79.691612,33.587704 
	C76.414200,31.395811 72.471573,31.982912 70.306641,34.885597 
	C67.907631,38.102123 67.938805,42.110958 72.308990,45.580894 
M324.866882,305.868927 
	C330.165405,302.099609 331.072845,295.290436 326.259857,293.452057 
	C323.860138,292.535431 319.764801,292.526428 318.170715,293.992523 
	C316.462830,295.563324 315.908112,299.535736 316.450165,302.125031 
	C317.188965,305.654083 320.620697,306.428375 324.866882,305.868927 
z"/>
<path fill="#5CADEB" opacity="1.000000" stroke="none" 
	d="
M138.147919,367.758636 
	C139.100143,369.233948 140.052383,370.709259 141.139038,372.904846 
	C138.306244,379.102875 135.339050,384.580658 132.376205,390.050415 
	C123.845039,386.752014 116.938057,387.767792 111.453148,393.998505 
	C105.460526,400.806000 106.113152,408.235352 110.593674,415.813660 
	C97.190636,429.430054 83.006287,441.679260 66.337242,450.796021 
	C65.100990,451.472198 63.519711,451.517548 62.098824,451.856140 
	C59.651466,449.975586 57.204105,448.095062 54.582298,445.697388 
	C57.765121,440.716309 55.694893,437.393860 52.519222,433.797607 
	C34.708935,413.628326 36.086002,382.765198 55.455002,364.329926 
	C74.992477,345.734283 105.578125,345.747284 124.836670,364.753387 
	C129.030136,368.891907 132.749161,370.954681 138.147919,367.758636 
M54.971291,427.828522 
	C58.898403,428.325531 61.565166,426.832306 62.054699,422.761993 
	C62.464119,419.357819 60.811108,416.872894 57.414162,416.127838 
	C53.994656,415.377869 50.878372,416.941925 50.751736,420.287659 
	C50.661308,422.676849 52.986198,425.157440 54.971291,427.828522 
z"/>
<path fill="#284268" opacity="1.000000" stroke="none" 
	d="
M457.957947,108.932663 
	C460.269135,115.003067 457.483398,118.573204 452.595215,122.101593 
	C433.448395,135.922226 414.985779,150.723557 395.496552,164.029099 
	C367.920074,182.855927 326.355652,169.015488 316.964447,133.394272 
	C311.205475,111.550201 321.031738,88.487343 338.725067,75.925667 
	C361.220306,59.954758 382.991882,42.964615 405.079254,26.418959 
	C406.399719,25.429783 407.701263,24.400465 409.101746,23.535778 
	C413.164856,21.027124 417.334351,21.478550 419.170837,24.896439 
	C421.211914,28.695141 419.910583,32.199894 416.741302,34.613476 
	C407.691437,41.505444 398.434326,48.124508 389.296844,54.902348 
	C374.162384,66.128586 358.699463,76.951302 344.049622,88.779663 
	C331.480743,98.927872 325.402191,112.388481 329.571198,128.819672 
	C333.758148,145.321411 344.579559,155.680954 361.246033,158.709961 
	C373.600647,160.955292 384.616821,156.680954 394.588074,148.997192 
	C411.836395,135.705811 429.414703,122.843262 446.801666,109.730698 
	C450.257843,107.124153 453.638397,106.863594 457.628876,109.045425 
	C457.985016,108.971687 457.957947,108.932663 457.957947,108.932663 
z"/>
<path fill="#294368" opacity="1.000000" stroke="none" 
	d="
M88.088158,205.655334 
	C81.936211,180.415405 97.448334,155.249603 122.665413,150.376328 
	C147.402695,145.595764 171.215240,158.687241 176.501663,185.856354 
	C181.429062,211.180389 166.588547,233.574387 141.242416,239.082932 
	C119.127632,243.889206 94.568588,230.642593 88.088158,205.655334 
M125.202484,222.997177 
	C122.481735,222.997177 119.760986,222.997177 116.223068,222.997177 
	C129.343185,231.626755 148.126556,227.647064 157.944931,214.893829 
	C168.464523,201.229691 166.830170,182.370316 154.299866,170.520920 
	C143.305756,160.124237 124.267204,158.563919 112.619255,169.010345 
	C116.164749,169.010345 119.272728,168.964645 122.378807,169.021912 
	C126.285858,169.093948 128.889053,171.001633 128.884033,175.006805 
	C128.878998,179.014053 126.261452,180.922058 122.360924,180.975677 
	C117.866455,181.037476 113.370552,180.996521 108.875267,180.997467 
	C100.967407,180.999130 99.970131,182.089508 100.099976,191.002823 
	C104.896652,191.002823 109.703705,190.973343 114.510231,191.010788 
	C119.738472,191.051514 122.678764,193.256577 122.377930,197.151688 
	C122.017899,201.813049 118.887169,203.105591 114.695251,203.018463 
	C110.138046,202.923737 105.577332,202.996979 100.916206,202.996979 
	C102.357864,210.891418 102.483192,211.000290 109.470436,211.002045 
	C114.798195,211.003372 120.126839,211.063187 125.453423,210.984390 
	C129.504059,210.924469 132.571609,212.447617 132.777435,216.696823 
	C132.982193,220.923431 130.215088,222.921738 125.202484,222.997177 
z"/>
<path fill="#294268" opacity="1.000000" stroke="none" 
	d="
M154.853485,8.988964 
	C157.069550,10.506098 158.973846,11.831676 160.803604,13.253173 
	C163.542267,15.380769 166.258713,16.197832 170.052048,16.235868 
	C187.605911,16.411882 202.619003,26.954374 204.886581,45.556961 
	C205.485809,50.472851 204.379257,55.581680 204.259338,60.606770 
	C204.202499,62.988884 204.441772,65.415474 204.866776,67.764023 
	C205.801987,72.931831 207.538437,78.027260 207.847260,83.217720 
	C208.247818,89.949608 201.795670,94.597679 195.297821,92.504517 
	C191.265121,91.205444 187.614151,88.762184 183.640579,87.222969 
	C181.376358,86.345886 178.734329,85.627869 176.387970,85.904190 
	C150.341949,88.971451 132.067230,65.987885 136.850021,45.360447 
	C138.336075,38.951302 139.457504,32.894108 135.242523,26.995399 
	C134.161072,25.481947 134.094070,23.234800 133.594070,21.316111 
	C130.778000,10.510003 137.756760,3.498905 148.571899,6.367317 
	C150.624939,6.911827 152.533279,8.001954 154.853485,8.988964 
M192.709061,46.226082 
	C190.078857,36.645390 183.929001,30.620632 174.119522,29.109308 
	C166.353775,27.912857 159.540146,30.228191 153.566345,37.384701 
	C162.948700,48.626896 172.140488,59.640755 181.467804,70.817001 
	C190.822571,64.538902 194.042725,56.820080 192.709061,46.226082 
M150.743378,60.623203 
	C154.059341,67.225426 159.257065,71.321182 167.395676,73.162971 
	C160.955048,65.441833 155.143738,58.475147 149.332428,51.508461 
	C149.025864,51.648960 148.719315,51.789463 148.412750,51.929962 
	C149.073486,54.606537 149.734222,57.283115 150.743378,60.623203 
z"/>
<path fill="#294369" opacity="1.000000" stroke="none" 
	d="
M61.896393,452.166870 
	C63.519711,451.517548 65.100990,451.472198 66.337242,450.796021 
	C83.006287,441.679260 97.190636,429.430054 110.593674,415.813660 
	C106.113152,408.235352 105.460526,400.806000 111.453148,393.998505 
	C116.938057,387.767792 123.845039,386.752014 132.376205,390.050415 
	C135.339050,384.580658 138.306244,379.102875 141.235672,373.236145 
	C143.041351,366.935913 146.266556,361.054016 146.393021,355.106201 
	C146.567444,346.904053 141.787247,342.727997 131.877487,344.339661 
	C127.608780,345.033936 124.465530,344.626465 123.157616,340.479340 
	C121.697525,335.849701 123.878540,333.276184 129.349228,331.779449 
	C142.813354,328.095825 158.457275,336.670319 159.207581,351.628387 
	C159.644806,360.345123 157.816132,368.230835 154.461945,375.965240 
	C152.618896,380.215149 150.331924,384.272522 147.763565,388.807190 
	C144.961670,393.367523 140.033585,396.175049 140.786102,401.951569 
	C142.243073,413.135620 135.474899,421.114594 123.959045,422.098694 
	C122.459938,422.226807 120.748909,422.915039 119.623627,423.900574 
	C109.878128,432.435822 100.244255,441.098572 90.264885,449.837555 
	C86.332787,452.608307 82.712959,455.264862 79.093124,457.921387 
	C67.944397,464.584595 56.572048,470.390350 42.997673,470.045563 
	C30.294846,469.722900 21.031775,460.812134 21.054111,448.187714 
	C21.061079,444.250305 21.327272,440.254913 22.046173,436.392426 
	C22.885660,431.882019 26.150602,429.882294 30.457447,431.135284 
	C34.541466,432.323395 35.238827,435.651428 34.757610,439.466400 
	C34.408043,442.237671 34.008175,445.036804 34.054581,447.816467 
	C34.143845,453.163239 37.898540,457.428192 43.124542,456.814575 
	C49.397606,456.078033 55.511272,453.983917 61.896393,452.166870 
M127.900253,401.750488 
	C124.943832,399.116241 122.091904,399.265625 119.878395,402.528717 
	C118.065506,405.201202 118.893257,407.944702 121.631310,409.260468 
	C123.112747,409.972351 126.306602,409.892273 126.961098,408.946655 
	C128.135635,407.249573 127.977493,404.630188 127.900253,401.750488 
z"/>
<path fill="#284268" opacity="1.000000" stroke="none" 
	d="
M412.297852,396.226929 
	C425.509277,385.747498 440.223602,383.532959 455.770447,387.511902 
	C473.698029,392.100098 485.181610,404.132507 489.596191,421.791656 
	C494.086304,439.752747 489.656464,456.019836 476.212280,469.253021 
	C457.422180,487.748199 423.621277,486.023102 406.661713,466.475861 
	C391.497253,448.997620 390.336456,424.223328 403.171967,405.924408 
	C405.627686,402.423431 409.056274,399.604828 412.297852,396.226929 
M435.946136,468.830444 
	C439.533661,468.891754 443.142822,469.237701 446.705170,468.967316 
	C467.085388,467.420685 481.948853,446.481659 477.419037,426.636688 
	C473.929413,411.348877 458.882812,397.979370 441.274872,398.766693 
	C421.371582,399.656586 406.578186,416.851044 407.256775,434.912994 
	C407.893402,451.856476 417.876373,464.084930 435.946136,468.830444 
z"/>
<path fill="#294369" opacity="1.000000" stroke="none" 
	d="
M138.182129,367.390381 
	C132.749161,370.954681 129.030136,368.891907 124.836670,364.753387 
	C105.578125,345.747284 74.992477,345.734283 55.455002,364.329926 
	C36.086002,382.765198 34.708935,413.628326 52.519222,433.797607 
	C55.694893,437.393860 57.765121,440.716309 54.289413,445.520081 
	C50.567646,447.987976 47.370625,447.053925 44.771713,444.207397 
	C34.887604,433.381470 28.847967,420.843445 27.988779,406.007812 
	C27.244890,393.162994 29.022533,380.867981 35.729633,369.652435 
	C45.742085,352.909729 59.953514,342.260651 79.526085,338.918121 
	C96.411880,336.034485 111.751091,339.684082 125.782730,348.990875 
	C129.965851,351.765442 133.720734,355.456146 136.894455,359.359222 
	C138.320145,361.112518 137.834641,364.419891 138.182129,367.390381 
z"/>
<path fill="#284268" opacity="1.000000" stroke="none" 
	d="
M371.562500,87.028870 
	C385.492615,89.970650 395.414673,97.134079 399.040436,110.974808 
	C405.288239,134.824631 387.424866,152.994629 368.177826,153.256195 
	C351.213715,153.486755 338.318207,142.122009 334.862000,128.417633 
	C329.432037,106.886887 346.529236,85.976830 367.617096,86.994881 
	C368.780975,87.051064 369.949585,87.009796 371.562500,87.028870 
M360.862915,140.046906 
	C371.358215,142.264664 379.300018,139.504990 382.857269,132.218933 
	C378.839874,132.135254 374.466339,131.863464 374.276581,126.816460 
	C374.197662,124.716888 376.009521,121.462540 377.844482,120.590027 
	C382.290222,118.476089 385.031860,121.558655 386.766632,125.870987 
	C390.137268,115.844360 384.933411,105.208153 375.021149,100.995575 
	C364.917847,96.701805 353.461823,101.069885 348.447571,111.127846 
	C343.717621,120.615562 347.119995,132.045563 356.629486,137.949432 
	C357.765533,138.632111 358.901550,139.314774 360.862915,140.046906 
z"/>
<path fill="#294268" opacity="1.000000" stroke="none" 
	d="
M282.231079,394.964172 
	C293.796356,391.736877 307.107880,396.905457 312.823120,406.640808 
	C319.687592,418.333771 318.022430,430.996490 309.168793,440.465637 
	C300.701965,449.521118 288.715424,451.076996 277.750397,446.310242 
	C268.310364,442.206421 261.710846,431.407990 262.004456,420.643829 
	C262.327454,408.801208 269.593903,399.396637 282.231079,394.964172 
M280.981171,433.729309 
	C288.082489,437.572571 294.767273,437.055420 299.807465,432.272797 
	C304.380737,427.933228 305.773804,421.054260 303.127930,415.343109 
	C300.408173,409.472473 295.633484,406.600159 289.273254,406.536713 
	C283.131927,406.475464 277.436066,410.447754 275.562378,416.266602 
	C273.431427,422.884216 274.853180,428.708069 280.981171,433.729309 
z"/>
<path fill="#284268" opacity="1.000000" stroke="none" 
	d="
M472.628357,281.008057 
	C483.552277,282.853607 491.195618,288.553040 494.634064,298.615601 
	C498.208710,309.076599 496.491028,319.320709 488.851898,327.366150 
	C480.394379,336.273529 469.800568,337.430817 458.226868,333.485870 
	C448.583740,330.199005 442.774414,319.810974 441.832275,309.588593 
	C440.373169,293.757294 454.738373,278.616058 472.628357,281.008057 
M458.293304,297.796539 
	C457.602997,298.730377 456.826874,299.613159 456.236084,300.606201 
	C451.810699,308.044586 454.253662,316.988861 461.815826,321.157684 
	C469.358643,325.315887 478.784851,322.274902 482.548828,314.468994 
	C485.393890,308.568756 483.774445,300.705475 478.889465,296.700500 
	C472.816833,291.721893 466.071899,291.915680 458.293304,297.796539 
z"/>
<path fill="#284268" opacity="1.000000" stroke="none" 
	d="
M177.292236,463.654633 
	C179.845245,469.768982 183.818634,473.970734 189.701111,476.244598 
	C193.024948,477.529419 196.259598,480.055817 195.528030,483.264984 
	C194.902863,486.007294 191.736877,488.708405 189.035019,490.325195 
	C183.724258,493.503082 179.742691,497.482269 176.920578,503.035431 
	C175.850388,505.141266 173.271072,507.007782 170.967896,507.829803 
	C167.877335,508.932861 165.759033,506.837067 164.432724,503.927490 
	C161.450851,497.385986 157.094223,492.166016 150.119186,489.549408 
	C147.139984,488.431824 145.067841,486.179932 146.168060,483.067200 
	C146.983704,480.759521 148.820526,478.151428 150.918335,477.083649 
	C156.953812,474.011658 161.248856,469.762054 164.186142,463.601776 
	C165.291092,461.284363 168.194229,458.904785 170.658600,458.394836 
	C173.545456,457.797516 176.278336,459.921173 177.292236,463.654633 
M173.840622,484.627869 
	C176.367981,480.244476 171.710648,480.453064 170.381287,478.351227 
	C168.757172,480.286499 167.457397,481.835297 166.031067,483.534912 
	C167.769928,485.181976 169.275757,486.608307 170.880096,488.127960 
	C171.934021,486.850616 172.656616,485.974884 173.840622,484.627869 
z"/>
<path fill="#284268" opacity="1.000000" stroke="none" 
	d="
M323.390991,276.236420 
	C321.813751,288.694641 309.568573,296.576477 298.366180,294.864044 
	C284.843414,292.796967 278.209564,280.680298 279.233612,271.439941 
	C280.884247,256.545624 291.901459,248.689484 306.515442,251.093048 
	C317.382812,252.880417 325.138458,264.141754 323.390991,276.236420 
M304.624817,263.504120 
	C303.813965,263.349823 303.005829,263.078552 302.191864,263.059906 
	C296.190033,262.922272 291.901917,267.030457 291.997772,272.771118 
	C292.093628,278.516113 296.528992,282.424500 302.494843,282.074890 
	C306.869019,281.818542 309.774628,279.421051 310.738892,275.385529 
	C311.940125,270.358276 310.244263,266.225342 304.624817,263.504120 
z"/>
<path fill="#284268" opacity="1.000000" stroke="none" 
	d="
M34.684868,77.333176 
	C26.371639,70.382675 25.297880,58.901527 28.838663,51.371082 
	C32.758121,43.035282 40.673195,37.805695 49.585423,38.005157 
	C59.771526,38.233131 69.706001,46.609978 70.955482,56.024597 
	C72.650589,68.797012 66.329506,78.851669 54.848511,81.910683 
	C47.420296,83.889877 40.863441,82.364944 34.684868,77.333176 
M39.635006,62.735397 
	C40.975296,67.166740 43.798473,69.825630 48.555225,70.070381 
	C52.580879,70.277519 55.699638,68.611984 57.596386,65.073219 
	C59.704620,61.139885 59.180813,57.320591 56.250553,53.998005 
	C53.418350,50.786617 49.664383,50.019527 45.798168,51.419998 
	C41.007820,53.155216 38.952740,56.906502 39.635006,62.735397 
z"/>
<path fill="#284268" opacity="1.000000" stroke="none" 
	d="
M62.002613,232.997040 
	C55.675007,235.872818 51.537624,240.211121 48.809597,246.326340 
	C47.892738,248.381577 44.889420,250.475143 42.665150,250.683044 
	C40.754799,250.861588 37.609318,248.847153 36.723083,246.986511 
	C33.486496,240.191406 28.681026,235.487061 21.925648,232.221893 
	C20.079922,231.329773 18.276962,228.252502 18.293583,226.192886 
	C18.310251,224.127716 20.153858,221.074631 22.014595,220.205521 
	C29.008677,216.938736 33.760933,212.032379 36.788532,204.936234 
	C37.550541,203.150208 40.461475,201.443085 42.502243,201.292709 
	C44.292736,201.160782 47.257954,202.825363 47.958839,204.449615 
	C51.373169,212.362198 57.075359,217.463943 64.778778,221.064407 
	C69.702332,223.365601 68.314972,229.409668 62.002613,232.997040 
M39.480228,228.977722 
	C40.529736,229.916611 41.579243,230.855499 42.759472,231.911331 
	C44.729053,229.841248 46.399719,228.085312 48.002140,226.401123 
	C46.118946,224.224014 44.519371,222.374802 42.254425,219.756363 
	C41.609020,223.629959 34.683975,223.468246 39.480228,228.977722 
z"/>
<path fill="#284268" opacity="1.000000" stroke="none" 
	d="
M292.758240,218.807465 
	C291.030609,221.664154 289.215576,224.119492 288.140137,226.864563 
	C286.688019,230.570953 283.800751,231.734360 280.647430,230.797043 
	C278.533783,230.168777 276.147797,228.063019 275.296692,226.027542 
	C272.693207,219.801285 268.115814,215.746567 262.302002,213.076752 
	C259.067078,211.591187 257.068970,209.795975 257.010345,206.150238 
	C256.952545,202.552826 259.134521,201.067413 262.166321,199.786804 
	C268.370392,197.166229 272.654999,192.587997 275.411346,186.323868 
	C277.686340,181.153702 281.537018,179.737091 285.247711,182.209473 
	C286.396698,182.975006 287.450989,184.281021 287.941040,185.570511 
	C290.509857,192.329926 295.284943,196.925461 301.713379,199.847992 
	C304.656616,201.186035 307.613129,203.069931 306.719971,206.269058 
	C306.001495,208.842682 303.340790,211.071915 301.131775,212.978897 
	C298.662537,215.110474 295.730743,216.706238 292.758240,218.807465 
M279.958069,202.350204 
	C278.727692,203.654526 277.497345,204.958847 276.939789,205.549896 
	C278.728729,207.839996 280.315430,209.871185 281.902130,211.902390 
	C281.634094,211.390320 281.366089,210.878250 281.098083,210.366196 
	C283.213898,209.086044 285.329712,207.805908 288.907288,205.641373 
	C285.152557,203.954376 282.799713,202.897247 279.958069,202.350204 
z"/>
<path fill="#294268" opacity="1.000000" stroke="none" 
	d="
M412.286438,304.366394 
	C408.211090,309.713348 402.349182,309.352936 400.129913,303.685822 
	C397.614471,297.262451 392.992645,293.246948 387.192261,289.906219 
	C384.733826,288.490234 381.946991,285.859467 381.404480,283.331299 
	C380.640686,279.771484 383.939514,277.648926 387.214600,276.362488 
	C393.261017,273.987427 397.288788,269.581818 399.682281,263.642578 
	C401.026520,260.307007 402.990234,257.693207 406.936035,258.092834 
	C410.397064,258.443390 411.971802,260.862701 413.252350,264.078918 
	C415.164490,268.881439 418.092896,273.139130 423.359131,275.095917 
	C424.745850,275.611176 426.011536,276.454132 427.328735,277.154205 
	C432.568329,279.938934 432.341949,287.825958 426.771851,289.724579 
	C419.796234,292.102295 415.241272,297.265320 412.286438,304.366394 
M411.596313,284.052094 
	C410.035675,281.828125 408.475067,279.604187 406.884247,277.337189 
	C404.426727,279.596466 402.520416,281.348999 400.486938,283.218414 
	C402.622894,285.368591 404.455292,287.213165 406.816437,289.590027 
	C408.336334,287.804657 409.715881,286.184204 411.596313,284.052094 
z"/>
<path fill="#294369" opacity="1.000000" stroke="none" 
	d="
M149.137451,398.910889 
	C158.325195,399.196503 160.196701,401.842041 158.906677,410.972046 
	C156.953232,424.797455 151.629074,437.160339 142.098465,447.151215 
	C129.826797,460.015411 114.641502,466.977570 96.420845,465.962738 
	C92.626701,465.751434 91.719681,462.891846 91.279716,459.388275 
	C93.754051,457.303436 95.943489,455.730469 98.566452,454.197998 
	C123.558907,452.853729 143.915634,433.714630 146.153549,410.222198 
	C146.518433,406.391754 148.111862,402.678375 149.137451,398.910889 
z"/>
<path fill="#50A4E7" opacity="1.000000" stroke="none" 
	d="
M149.080536,398.482361 
	C148.111862,402.678375 146.518433,406.391754 146.153549,410.222198 
	C143.915634,433.714630 123.558907,452.853729 98.319962,453.939209 
	C95.285675,452.334412 92.931419,451.028870 90.577164,449.723358 
	C100.244255,441.098572 109.878128,432.435822 119.623627,423.900574 
	C120.748909,422.915039 122.459938,422.226807 123.959045,422.098694 
	C135.474899,421.114594 142.243073,413.135620 140.786102,401.951569 
	C140.033585,396.175049 144.961670,393.367523 147.611740,389.128601 
	C148.302170,392.057678 148.662888,395.055725 149.080536,398.482361 
z"/>
<path fill="#284268" opacity="1.000000" stroke="none" 
	d="
M464.037231,51.441418 
	C460.121887,52.215485 456.841461,52.450470 454.913116,48.256744 
	C452.950256,43.988049 455.531647,41.533730 458.216553,39.379028 
	C467.236115,32.140640 476.315948,24.965467 485.614807,18.093727 
	C488.683105,15.826303 492.391785,16.163326 494.856262,19.516544 
	C497.173126,22.668831 496.490082,26.191174 493.689972,28.450411 
	C484.058563,36.221531 474.166595,43.669750 464.037231,51.441418 
z"/>
<path fill="#284268" opacity="1.000000" stroke="none" 
	d="
M422.337158,67.249191 
	C424.414825,65.846298 426.218170,64.685432 427.953674,63.430756 
	C431.101715,61.154938 434.506439,61.071667 436.818512,64.012909 
	C439.105896,66.922676 439.335297,70.681747 436.044342,73.383492 
	C428.758270,79.365112 421.321808,85.163773 413.933655,91.020645 
	C411.860535,92.664062 409.854767,94.431976 407.617371,95.819000 
	C404.525604,97.735664 401.242645,98.024117 398.664551,94.967163 
	C396.068665,91.889122 396.631226,88.583206 399.490631,86.111725 
	C405.494507,80.922379 411.747162,76.021133 417.886597,70.988113 
	C419.291473,69.836418 420.651550,68.630112 422.337158,67.249191 
z"/>
<path fill="#284268" opacity="1.000000" stroke="none" 
	d="
M438.047119,91.016685 
	C437.286987,86.994453 438.875214,84.043861 441.954865,81.493927 
	C448.952026,75.700333 455.767578,69.687721 462.752350,63.878811 
	C466.031372,61.151810 470.972443,61.231030 473.170898,63.765816 
	C475.906433,66.919815 475.652435,70.283012 471.681976,73.720741 
	C464.070435,80.311012 456.326721,86.765709 448.350464,92.903198 
	C446.767365,94.121353 443.894409,93.663239 441.032043,93.717445 
	C439.929657,93.286835 439.411499,93.116898 438.899506,92.649429 
	C438.598419,91.886642 438.291199,91.421379 437.998657,90.972382 
	C438.013367,90.988663 438.047119,91.016685 438.047119,91.016685 
z"/>
<path fill="#284268" opacity="1.000000" stroke="none" 
	d="
M423.766174,49.319729 
	C419.152588,46.014038 418.473236,41.965302 422.109283,38.509357 
	C425.674438,35.120808 429.356323,31.614882 433.604095,29.286118 
	C435.725677,28.122990 439.904327,28.494953 441.942352,29.912497 
	C445.054199,32.076927 444.664062,35.949181 441.818939,38.522015 
	C437.689728,42.256004 433.265137,45.690540 428.746002,48.946732 
	C427.637909,49.745148 425.674683,49.356770 423.766174,49.319729 
z"/>
<path fill="#284268" opacity="1.000000" stroke="none" 
	d="
M402.731201,53.767086 
	C405.183899,51.754307 407.217346,49.719738 409.615601,48.302490 
	C412.798676,46.421448 416.326660,45.864246 418.983124,49.224380 
	C421.247925,52.089111 420.141205,56.927235 416.997711,59.379467 
	C414.264099,61.511978 411.508545,63.616451 408.756348,65.725029 
	C404.805267,68.752090 400.339844,68.649307 398.190216,65.490425 
	C395.885162,62.103130 396.918884,58.436283 401.013031,55.379776 
	C401.543091,54.984058 401.989288,54.476070 402.731201,53.767086 
z"/>
<path fill="#284268" opacity="1.000000" stroke="none" 
	d="
M451.793335,13.705765 
	C453.903809,12.390901 455.713196,10.605223 457.627991,10.483934 
	C459.618835,10.357825 462.684845,11.286489 463.520538,12.755371 
	C464.638580,14.720510 465.168365,18.562660 463.994934,19.983891 
	C461.115387,23.471344 457.300842,26.306429 453.508850,28.883732 
	C450.368927,31.017830 447.270050,29.687582 445.488861,26.619493 
	C443.673920,23.493246 444.066589,20.253603 446.913239,17.690462 
	C448.381989,16.367971 449.992218,15.202624 451.793335,13.705765 
z"/>
<path fill="#284268" opacity="1.000000" stroke="none" 
	d="
M479.311737,63.893646 
	C472.619049,60.514164 472.258850,55.875320 477.911621,51.458664 
	C480.111298,49.740044 481.963196,47.192635 484.432495,46.316860 
	C486.646271,45.531715 490.401276,45.593460 491.813293,46.977840 
	C493.394684,48.528275 494.444397,52.926746 493.381775,54.438187 
	C490.122711,59.073696 486.030701,63.352058 479.311737,63.893646 
z"/>
<path fill="#284268" opacity="1.000000" stroke="none" 
	d="
M294.476379,474.726593 
	C287.895294,477.159180 282.970062,475.490570 281.333191,470.585724 
	C279.774109,465.913910 282.063812,461.277344 286.979675,459.587860 
	C290.786011,458.279755 294.247070,459.235535 296.663177,462.426331 
	C299.207733,465.786743 298.318542,470.540802 294.476379,474.726593 
z"/>
<path fill="#284268" opacity="1.000000" stroke="none" 
	d="
M240.699295,413.244324 
	C245.016205,412.780304 248.837036,412.831329 250.917267,417.009399 
	C252.716370,420.622803 252.187531,424.185760 249.730728,427.233032 
	C247.443192,430.070435 243.855728,431.152557 240.849182,429.570984 
	C238.425629,428.296021 236.011139,425.509216 235.250809,422.908417 
	C234.031799,418.738586 235.975281,415.150238 240.699295,413.244324 
z"/>
<path fill="#284268" opacity="1.000000" stroke="none" 
	d="
M314.246460,392.214630 
	C313.860535,387.648071 313.426971,383.314301 318.106384,381.082886 
	C322.790100,378.849396 327.378235,380.451691 329.962372,384.937927 
	C331.799713,388.127625 330.927124,393.049500 328.130615,395.270538 
	C324.588013,398.084137 319.062042,397.582062 315.647491,394.120270 
	C315.184143,393.650513 314.790314,393.112213 314.246460,392.214630 
z"/>
<path fill="#284268" opacity="1.000000" stroke="none" 
	d="
M297.913605,373.488312 
	C298.020020,377.223633 298.133881,380.399353 294.409485,382.344696 
	C291.211121,384.015289 288.303467,384.570404 285.120789,382.572632 
	C282.045319,380.642120 279.948578,377.847687 281.195740,374.392578 
	C282.148773,371.752289 284.272095,368.251740 286.518707,367.684540 
	C289.349396,366.969971 292.909424,368.643799 295.993042,369.741516 
	C296.900696,370.064606 297.260040,371.927826 297.913605,373.488312 
z"/>
<path fill="#284268" opacity="1.000000" stroke="none" 
	d="
M343.913055,419.483734 
	C344.405518,424.476807 343.081482,428.243286 338.355011,429.661499 
	C334.679138,430.764465 331.198029,430.098419 328.845520,426.553375 
	C325.968719,422.218231 327.018616,416.231171 331.064362,413.954132 
	C335.909790,411.226990 341.060486,413.289276 343.913055,419.483734 
z"/>
<path fill="#284268" opacity="1.000000" stroke="none" 
	d="
M355.336273,494.278748 
	C356.530457,489.106140 359.597656,486.113922 364.421356,486.226318 
	C368.098663,486.312012 371.290161,488.109070 372.297119,492.463684 
	C373.261383,496.633636 371.315613,501.381927 367.634613,502.657532 
	C362.503967,504.435516 357.873688,502.559692 356.110748,497.938263 
	C355.703461,496.870544 355.482758,495.731659 355.336273,494.278748 
z"/>
<path fill="#284268" opacity="1.000000" stroke="none" 
	d="
M190.761078,297.372620 
	C185.056320,295.005646 183.343979,291.797516 184.919510,286.901184 
	C186.561127,281.799438 190.512161,279.701996 195.797577,281.126434 
	C199.563889,282.141449 201.993118,286.193878 201.330917,290.357208 
	C200.462387,295.817719 197.366623,297.996429 190.761078,297.372620 
z"/>
<path fill="#284268" opacity="1.000000" stroke="none" 
	d="
M302.438721,41.020706 
	C300.339508,45.490780 296.628693,47.283455 292.941589,45.540031 
	C290.093475,44.193336 286.902740,40.817471 286.468353,37.949371 
	C286.088074,35.438435 288.685150,31.323505 291.135376,29.815405 
	C294.550995,27.713066 299.246521,28.106033 301.485016,32.263744 
	C302.742371,34.599129 302.316406,37.840794 302.438721,41.020706 
z"/>
<path fill="#284268" opacity="1.000000" stroke="none" 
	d="
M488.970154,164.287415 
	C489.186401,169.173157 487.686371,172.394028 482.920013,173.576721 
	C479.056763,174.535339 475.502228,173.584167 473.950378,170.240570 
	C472.713745,167.576065 472.092224,163.372528 473.397583,161.136475 
	C474.687286,158.927170 478.660736,157.493134 481.594299,157.225449 
	C485.712708,156.849655 488.172455,159.788437 488.970154,164.287415 
z"/>
<path fill="#284268" opacity="1.000000" stroke="none" 
	d="
M42.158043,328.990967 
	C36.962078,327.947662 33.674957,324.187805 34.116890,320.260040 
	C34.666428,315.375916 38.974182,311.663574 43.667179,312.029724 
	C48.462376,312.403839 51.145630,315.853912 50.994503,321.451019 
	C50.864487,326.265991 48.137833,328.707703 42.158043,328.990967 
z"/>
<path fill="#284268" opacity="1.000000" stroke="none" 
	d="
M26.112782,150.086365 
	C32.096870,148.768265 35.429802,150.341766 37.101643,155.018066 
	C38.574440,159.137634 36.866619,164.034424 33.391445,165.656097 
	C29.199043,167.612488 24.541868,166.346695 22.103380,162.588043 
	C19.308058,158.279373 20.935766,152.717102 26.112782,150.086365 
z"/>
<path fill="#284268" opacity="1.000000" stroke="none" 
	d="
M216.278961,159.739136 
	C212.828918,153.847931 213.331741,149.297485 217.391876,146.874512 
	C222.412521,143.878357 226.945801,144.810303 229.741959,149.597321 
	C231.931610,153.345993 231.513428,156.985901 228.363098,160.014038 
	C225.428604,162.834717 220.360245,162.731277 216.278961,159.739136 
z"/>
<path fill="#284268" opacity="1.000000" stroke="none" 
	d="
M314.009338,453.188477 
	C315.467377,446.902588 318.392975,445.018616 324.415649,446.077789 
	C328.568878,446.808197 331.373016,450.714661 330.968353,455.206451 
	C330.615814,459.120026 326.117188,462.982239 321.975464,462.927063 
	C317.125793,462.862457 314.275726,459.527618 314.009338,453.188477 
z"/>
<path fill="#284268" opacity="1.000000" stroke="none" 
	d="
M256.970520,462.922668 
	C248.517609,460.351898 246.340851,456.120270 249.527786,449.859924 
	C251.782242,445.431305 255.786819,445.354126 259.363068,446.315338 
	C261.539825,446.900391 264.115326,449.528656 264.697662,451.720978 
	C265.653198,455.318268 265.609497,459.502899 261.040558,461.465088 
	C259.827820,461.985931 258.585602,462.438049 256.970520,462.922668 
z"/>
<path fill="#284268" opacity="1.000000" stroke="none" 
	d="
M431.396484,247.085266 
	C431.395752,250.449203 431.969421,253.898834 430.706390,256.433044 
	C428.723022,260.412567 423.131470,261.087341 419.381531,258.654816 
	C415.643402,256.230042 414.148804,251.396957 416.062195,247.921295 
	C418.609680,243.293686 423.371063,241.615555 427.727112,243.968872 
	C428.998749,244.655884 430.014374,245.816788 431.396484,247.085266 
z"/>
<path fill="#284268" opacity="1.000000" stroke="none" 
	d="
M249.722534,383.897766 
	C254.606857,379.386688 259.817871,379.020264 263.093811,382.677002 
	C266.064087,385.992554 266.045044,392.835175 262.152740,394.965393 
	C259.423828,396.458954 254.808121,396.988068 252.288162,395.627289 
	C250.109375,394.450745 249.578064,390.042206 248.587631,386.975433 
	C248.344620,386.222992 249.151825,385.131348 249.722534,383.897766 
z"/>
<path fill="#284268" opacity="1.000000" stroke="none" 
	d="
M444.554199,50.248211 
	C448.656342,48.171116 452.368805,48.266743 454.340637,52.224800 
	C456.244202,56.045845 455.087891,59.648788 451.079712,61.949894 
	C449.532959,62.837891 448.230072,64.438393 446.601685,64.835846 
	C443.349365,65.629677 439.928711,65.036812 438.524719,61.647881 
	C437.185120,58.414387 437.770813,55.126354 441.120544,52.930664 
	C442.222839,52.208134 443.183838,51.270020 444.554199,50.248211 
z"/>
<path fill="#284268" opacity="1.000000" stroke="none" 
	d="
M438.893372,92.946953 
	C439.411499,93.116898 439.929657,93.286835 440.666534,93.619186 
	C440.162384,98.592392 438.676178,102.819771 434.020355,105.467331 
	C430.338959,107.560783 426.374634,107.400291 424.264496,104.436073 
	C422.092926,101.385490 422.811493,97.407425 425.936798,94.700531 
	C429.187866,91.884697 432.718994,90.076805 437.613708,91.095901 
	C438.047119,91.016685 438.013367,90.988663 437.884735,91.265678 
	C438.135193,92.010780 438.514282,92.478867 438.893372,92.946953 
z"/>
<path fill="#284268" opacity="1.000000" stroke="none" 
	d="
M429.167084,10.977474 
	C434.330597,9.640407 437.305420,11.164213 439.268890,15.558194 
	C441.246887,19.984747 438.566284,22.619396 435.487854,24.554825 
	C431.953339,26.777020 428.419922,25.668873 426.018829,22.369976 
	C423.427704,18.809998 423.964569,15.302659 427.241455,12.300263 
	C427.723816,11.858301 428.284698,11.502063 429.167084,10.977474 
z"/>
<path fill="#284268" opacity="1.000000" stroke="none" 
	d="
M71.987938,45.325752 
	C67.938805,42.110958 67.907631,38.102123 70.306641,34.885597 
	C72.471573,31.982912 76.414200,31.395811 79.691612,33.587704 
	C83.008232,35.805817 83.664299,39.335594 81.888878,42.792393 
	C79.811981,46.836216 75.971649,46.228378 71.987938,45.325752 
z"/>
<path fill="#284268" opacity="1.000000" stroke="none" 
	d="
M324.468689,305.912964 
	C320.620697,306.428375 317.188965,305.654083 316.450165,302.125031 
	C315.908112,299.535736 316.462830,295.563324 318.170715,293.992523 
	C319.764801,292.526428 323.860138,292.535431 326.259857,293.452057 
	C331.072845,295.290436 330.165405,302.099609 324.468689,305.912964 
z"/>
<path fill="#284268" opacity="1.000000" stroke="none" 
	d="
M458.001282,108.988831 
	C458.018799,107.519615 457.484436,105.720345 458.132141,104.611679 
	C459.504974,102.262001 461.155212,99.114746 463.330811,98.477898 
	C465.298065,97.902023 469.213104,99.612206 470.246796,101.451157 
	C471.267670,103.267288 470.441986,106.924049 469.175720,109.016525 
	C467.650543,111.536835 464.732056,113.023453 461.466309,111.142090 
	C460.476288,110.571739 459.555756,109.880737 458.280670,109.088837 
	C457.957947,108.932663 457.985016,108.971687 458.001282,108.988831 
z"/>
<path fill="#5CADEB" opacity="1.000000" stroke="none" 
	d="
M90.264893,449.837555 
	C92.931419,451.028870 95.285675,452.334412 97.886429,453.898743 
	C95.943489,455.730469 93.754051,457.303436 91.242279,459.018585 
	C87.252869,458.781769 83.585808,458.402771 79.505936,457.972595 
	C82.712959,455.264862 86.332787,452.608307 90.264893,449.837555 
z"/>
<path fill="#294369" opacity="1.000000" stroke="none" 
	d="
M54.602310,427.712891 
	C52.986198,425.157440 50.661308,422.676849 50.751736,420.287659 
	C50.878372,416.941925 53.994656,415.377869 57.414162,416.127838 
	C60.811108,416.872894 62.464119,419.357819 62.054699,422.761993 
	C61.565166,426.832306 58.898403,428.325531 54.602310,427.712891 
z"/>
<path fill="#F8DD4A" opacity="1.000000" stroke="none" 
	d="
M125.634865,222.995483 
	C130.215088,222.921738 132.982193,220.923431 132.777435,216.696823 
	C132.571609,212.447617 129.504059,210.924469 125.453423,210.984390 
	C120.126839,211.063187 114.798195,211.003372 109.470436,211.002045 
	C102.483192,211.000290 102.357864,210.891418 100.916206,202.996979 
	C105.577332,202.996979 110.138046,202.923737 114.695251,203.018463 
	C118.887169,203.105591 122.017899,201.813049 122.377930,197.151688 
	C122.678764,193.256577 119.738472,191.051514 114.510231,191.010788 
	C109.703705,190.973343 104.896652,191.002823 100.099976,191.002823 
	C99.970131,182.089508 100.967407,180.999130 108.875267,180.997467 
	C113.370552,180.996521 117.866455,181.037476 122.360924,180.975677 
	C126.261452,180.922058 128.878998,179.014053 128.884033,175.006805 
	C128.889053,171.001633 126.285858,169.093948 122.378807,169.021912 
	C119.272728,168.964645 116.164749,169.010345 112.619255,169.010345 
	C124.267204,158.563919 143.305756,160.124237 154.299866,170.520920 
	C166.830170,182.370316 168.464523,201.229691 157.944931,214.893829 
	C148.126556,227.647064 129.343185,231.626755 116.223068,222.997177 
	C119.760986,222.997177 122.481735,222.997177 125.634865,222.995483 
z"/>
<path fill="#EA6238" opacity="1.000000" stroke="none" 
	d="
M192.792892,46.647366 
	C194.042725,56.820080 190.822571,64.538902 181.467804,70.817001 
	C172.140488,59.640755 162.948700,48.626896 153.566345,37.384701 
	C159.540146,30.228191 166.353775,27.912857 174.119522,29.109308 
	C183.929001,30.620632 190.078857,36.645390 192.792892,46.647366 
z"/>
<path fill="#EA6238" opacity="1.000000" stroke="none" 
	d="
M150.569183,60.291447 
	C149.734222,57.283115 149.073486,54.606537 148.412750,51.929962 
	C148.719315,51.789463 149.025864,51.648960 149.332428,51.508461 
	C155.143738,58.475147 160.955048,65.441833 167.395676,73.162971 
	C159.257065,71.321182 154.059341,67.225426 150.569183,60.291447 
z"/>
<path fill="#DDEEF7" opacity="1.000000" stroke="none" 
	d="
M128.138260,402.073364 
	C127.977493,404.630188 128.135635,407.249573 126.961098,408.946655 
	C126.306602,409.892273 123.112747,409.972351 121.631310,409.260468 
	C118.893257,407.944702 118.065506,405.201202 119.878395,402.528717 
	C122.091904,399.265625 124.943832,399.116241 128.138260,402.073364 
z"/>
<path fill="#000000" opacity="1.000000" stroke="none" 
	d="
M435.556396,468.681580 
	C417.876373,464.084930 407.893402,451.856476 407.256775,434.912994 
	C406.578186,416.851044 421.371582,399.656586 441.274872,398.766693 
	C458.882812,397.979370 473.929413,411.348877 477.419037,426.636688 
	C481.948853,446.481659 467.085388,467.420685 446.705170,468.967316 
	C443.142822,469.237701 439.533661,468.891754 435.556396,468.681580 
M416.792664,425.455994 
	C416.216156,429.178558 414.669769,433.055450 415.233246,436.596619 
	C417.514923,450.936584 427.165619,461.393860 443.730011,461.226044 
	C460.445709,461.056671 474.013336,444.727600 469.209564,426.663239 
	C466.289276,415.681335 456.542755,407.798553 446.780579,406.938324 
	C430.629822,405.515076 421.404053,413.270569 416.792664,425.455994 
z"/>
<path fill="#5E6978" opacity="1.000000" stroke="none" 
	d="
M356.316528,137.562943 
	C347.119995,132.045563 343.717621,120.615562 348.447571,111.127846 
	C353.461823,101.069885 364.917847,96.701805 375.021149,100.995575 
	C384.933411,105.208153 390.137268,115.844360 386.766632,125.870987 
	C385.031860,121.558655 382.290222,118.476089 377.844482,120.590027 
	C376.009521,121.462540 374.197662,124.716888 374.276581,126.816460 
	C374.466339,131.863464 378.839874,132.135254 382.857269,132.218933 
	C379.300018,139.504990 371.358215,142.264664 360.689331,139.777588 
	C361.865112,138.877441 363.347900,138.432312 364.536804,137.578110 
	C367.207794,135.659027 368.681641,133.142700 366.883789,129.876053 
	C365.306122,127.009430 362.967072,125.281517 359.497681,126.405830 
	C356.230072,127.464752 354.586243,129.747818 355.131897,133.248215 
	C355.360107,134.712433 355.911896,136.126221 356.316528,137.562943 
M356.494446,108.969826 
	C352.398621,109.019867 350.238281,111.385117 350.280518,115.185493 
	C350.316986,118.466133 352.259644,120.738312 355.867371,121.022697 
	C359.624146,121.318840 362.139343,119.539406 362.648315,115.949959 
	C363.185272,112.163109 361.316956,109.587807 356.494446,108.969826 
z"/>
<path fill="#294368" opacity="1.000000" stroke="none" 
	d="
M356.473022,137.756195 
	C355.911896,136.126221 355.360107,134.712433 355.131897,133.248215 
	C354.586243,129.747818 356.230072,127.464752 359.497681,126.405830 
	C362.967072,125.281517 365.306122,127.009430 366.883789,129.876053 
	C368.681641,133.142700 367.207794,135.659027 364.536804,137.578110 
	C363.347900,138.432312 361.865112,138.877441 360.276672,139.752853 
	C358.901550,139.314774 357.765533,138.632111 356.473022,137.756195 
z"/>
<path fill="#EA6238" opacity="1.000000" stroke="none" 
	d="
M280.686218,433.491211 
	C274.853180,428.708069 273.431427,422.884216 275.562378,416.266602 
	C277.436066,410.447754 283.131927,406.475464 289.273254,406.536713 
	C295.633484,406.600159 300.408173,409.472473 303.127930,415.343109 
	C305.773804,421.054260 304.380737,427.933228 299.807465,432.272797 
	C294.767273,437.055420 288.082489,437.572571 280.686218,433.491211 
z"/>
<path fill="#5E6978" opacity="1.000000" stroke="none" 
	d="
M458.555786,297.536835 
	C466.071899,291.915680 472.816833,291.721893 478.889465,296.700500 
	C483.774445,300.705475 485.393890,308.568756 482.548828,314.468994 
	C478.784851,322.274902 469.358643,325.315887 461.815826,321.157684 
	C454.253662,316.988861 451.810699,308.044586 456.236084,300.606201 
	C456.826874,299.613159 457.602997,298.730377 458.555786,297.536835 
z"/>
<path fill="#000000" opacity="1.000000" stroke="none" 
	d="
M173.609909,484.863525 
	C172.656616,485.974884 171.934021,486.850616 170.880096,488.127960 
	C169.275757,486.608307 167.769928,485.181976 166.031067,483.534912 
	C167.457397,481.835297 168.757172,480.286499 170.381287,478.351227 
	C171.710648,480.453064 176.367981,480.244476 173.609909,484.863525 
z"/>
<path fill="#5E6978" opacity="1.000000" stroke="none" 
	d="
M304.987823,263.655762 
	C310.244263,266.225342 311.940125,270.358276 310.738892,275.385529 
	C309.774628,279.421051 306.869019,281.818542 302.494843,282.074890 
	C296.528992,282.424500 292.093628,278.516113 291.997772,272.771118 
	C291.901917,267.030457 296.190033,262.922272 302.191864,263.059906 
	C303.005829,263.078552 303.813965,263.349823 304.987823,263.655762 
z"/>
<path fill="#5E4AEF" opacity="1.000000" stroke="none" 
	d="
M39.532734,62.367653 
	C38.952740,56.906502 41.007820,53.155216 45.798168,51.419998 
	C49.664383,50.019527 53.418350,50.786617 56.250553,53.998005 
	C59.180813,57.320591 59.704620,61.139885 57.596386,65.073219 
	C55.699638,68.611984 52.580879,70.277519 48.555225,70.070381 
	C43.798473,69.825630 40.975296,67.166740 39.532734,62.367653 
z"/>
<path fill="#50A4E7" opacity="1.000000" stroke="none" 
	d="
M39.237106,228.736694 
	C34.683975,223.468246 41.609020,223.629959 42.254425,219.756363 
	C44.519371,222.374802 46.118946,224.224014 48.002140,226.401123 
	C46.399719,228.085312 44.729053,229.841248 42.759472,231.911331 
	C41.579243,230.855499 40.529736,229.916611 39.237106,228.736694 
z"/>
<path fill="#50A4E7" opacity="1.000000" stroke="none" 
	d="
M280.202454,202.095154 
	C282.799713,202.897247 285.152557,203.954376 288.907288,205.641373 
	C285.329712,207.805908 283.213898,209.086044 281.098083,210.366196 
	C281.366089,210.878250 281.634094,211.390320 281.902130,211.902390 
	C280.315430,209.871185 278.728729,207.839996 276.939789,205.549896 
	C277.497345,204.958847 278.727692,203.654526 280.202454,202.095154 
z"/>
<path fill="#F8DD4A" opacity="1.000000" stroke="none" 
	d="
M411.345856,284.307922 
	C409.715881,286.184204 408.336334,287.804657 406.816437,289.590027 
	C404.455292,287.213165 402.622894,285.368591 400.486938,283.218414 
	C402.520416,281.348999 404.426727,279.596466 406.884247,277.337189 
	C408.475067,279.604187 410.035675,281.828125 411.345856,284.307922 
z"/>
<path fill="#000000" opacity="1.000000" stroke="none" 
	d="
M438.899506,92.649429 
	C438.514282,92.478867 438.135193,92.010780 437.870056,91.249405 
	C438.291199,91.421379 438.598419,91.886642 438.899506,92.649429 
z"/>
<path fill="#294368" opacity="1.000000" stroke="none" 
	d="
M416.882629,425.068115 
	C421.404053,413.270569 430.629822,405.515076 446.780579,406.938324 
	C456.542755,407.798553 466.289276,415.681335 469.209564,426.663239 
	C474.013336,444.727600 460.445709,461.056671 443.730011,461.226044 
	C427.165619,461.393860 417.514923,450.936584 415.233246,436.596619 
	C414.669769,433.055450 416.216156,429.178558 416.882629,425.068115 
M427.987213,436.114014 
	C430.874115,447.625610 442.137268,452.597839 451.194977,446.359314 
	C457.061005,442.319153 459.313721,434.776550 456.592133,428.288452 
	C453.877838,421.817810 446.637695,417.907867 439.970184,419.311981 
	C432.344574,420.917877 428.065063,426.590973 427.987213,436.114014 
z"/>
<path fill="#294368" opacity="1.000000" stroke="none" 
	d="
M356.892334,108.980881 
	C361.316956,109.587807 363.185272,112.163109 362.648315,115.949959 
	C362.139343,119.539406 359.624146,121.318840 355.867371,121.022697 
	C352.259644,120.738312 350.316986,118.466133 350.280518,115.185493 
	C350.238281,111.385117 352.398621,109.019867 356.892334,108.980881 
z"/>
<path fill="#F8DD4A" opacity="1.000000" stroke="none" 
	d="
M427.960968,435.690399 
	C428.065063,426.590973 432.344574,420.917877 439.970184,419.311981 
	C446.637695,417.907867 453.877838,421.817810 456.592133,428.288452 
	C459.313721,434.776550 457.061005,442.319153 451.194977,446.359314 
	C442.137268,452.597839 430.874115,447.625610 427.960968,435.690399 
z"/>
</svg>